0
SECTION
2
HEADER
9
$INSUNITS
70
4
9
$ACADVER
1
AC1014
9
$HANDSEED
5
FFFF
0
ENDSEC
0
SECTION
2
TABLES
0
TABLE
2
VPORT
5
8
100
AcDbSymbolTable
0
ENDTAB
0
TABLE
2
LTYPE
5
5
100
AcDbSymbolTable
70
2
0
LTYPE
5
14
100
AcDbSymbolTableRecord
100
AcDbLinetypeTableRecord
2
BYBLOCK
70
0
0
LTYPE
5
15
100
AcDbSymbolTableRecord
100
AcDbLinetypeTableRecord
2
BYLAYER
70
0
0
ENDTAB
0
TABLE
2
LAYER
5
2
100
AcDbSymbolTable
70
3
0
LAYER
5
50
100
AcDbSymbolTableRecord
100
AcDbLayerTableRecord
2
0
70
0
6
CONTINUOUS
0
LAYER
5
51
100
AcDbSymbolTableRecord
100
AcDbLayerTableRecord
2
CUTOUTS
70
0
62
1
6
CONTINUOUS
0
LAYER
5
52
100
AcDbSymbolTableRecord
100
AcDbLayerTableRecord
2
PERIMETER
70
0
62
5
6
CONTINUOUS
0
ENDTAB
0
TABLE
2
STYLE
5
3
100
AcDbSymbolTable
70
1
0
STYLE
5
11
100
AcDbSymbolTableRecord
100
AcDbTextStyleTableRecord
2
STANDARD
70
0
0
ENDTAB
0
TABLE
2
VIEW
5
6
100
AcDbSymbolTable
0
ENDTAB
0
TABLE
2
UCS
5
7
100
AcDbSymbolTable
0
ENDTAB
0
TABLE
2
APPID
5
9
100
AcDbSymbolTable
70
1
0
APPID
5
12
100
AcDbSymbolTableRecord
100
AcDbRegAppTableRecord
2
ACAD
70
0
0
ENDTAB
0
TABLE
2
DIMSTYLE
5
A
100
AcDbSymbolTable
0
ENDTAB
0
TABLE
2
BLOCK_RECORD
5
1
100
AcDbSymbolTable
70
2
0
BLOCK_RECORD
5
1F
100
AcDbSymbolTableRecord
100
AcDbBlockTableRecord
2
*MODEL_SPACE
0
BLOCK_RECORD
5
1B
100
AcDbSymbolTableRecord
100
AcDbBlockTableRecord
2
*PAPER_SPACE
0
ENDTAB
0
ENDSEC
0
SECTION
2
BLOCKS
0
BLOCK
5
20
100
AcDbEntity
100
AcDbBlockBegin
2
*MODEL_SPACE
0
ENDBLK
5
21
100
AcDbEntity
100
AcDbBlockEnd
0
BLOCK
5
1C
100
AcDbEntity
100
AcDbBlockBegin
2
*PAPER_SPACE
0
ENDBLK
5
1D
100
AcDbEntity
100
AcDbBlockEnd
0
ENDSEC
0
SECTION
2
ENTITIES
0
CIRCLE
5
100
100
AcDbEntity
8
CUTOUTS
100
AcDbCircle
10
-68
20
11.500000000000002
30
0
40
0.87500000000000355
210
0
220
0
230
1
0
SPLINE
5
101
100
AcDbEntity
8
PERIMETER
100
AcDbSpline
70
0
71
3
72
14
73
10
74
0
42
0.000000001
43
0.0000000001
44
0.0000000001
40
0
40
0
40
0
40
0
40
0.21172798800113571
40
0.21172798800113571
40
0.21172798800113571
40
1
40
1
40
1
40
1.0220983775145205
40
1.0220983775145205
40
1.0220983775145205
40
1.0220983775145205
10
-73.854279746976857
20
12.883313852004816
30
0
10
-74.042246196760019
20
12.923371195554703
30
0
10
-74.190271670663591
20
12.891876024753365
30
0
10
-74.348627045812378
20
12.863394254877498
30
0
10
-74.938190623862866
20
12.757355453596217
30
0
10
-75.526038854346083
20
12.454903219898339
30
0
10
-76.065506146058112
20
12.031089382305016
30
0
10
-76.080280776223475
20
12.01948220462139
30
0
10
-76.095055406388838
20
12.007875026937764
30
0
10
-76.1098300365542
20
11.99626784925414
30
0
0
ARC
5
102
100
AcDbEntity
8
PERIMETER
100
AcDbCircle
10
-68
20
11.500000000000004
30
0
40
8.1249999999999947
210
6.0228662276108514e-33
220
9.8423505597303017e-32
230
1
100
AcDbArc
50
176.49824459785071
51
183.50175540214926
0
SPLINE
5
103
100
AcDbEntity
8
PERIMETER
100
AcDbSpline
70
0
71
3
72
17
73
13
74
0
42
0.000000001
43
0.0000000001
44
0.0000000001
40
-1.022098377514514
40
-1.022098377514514
40
-1.022098377514514
40
-1.022098377514514
40
-1
40
-1
40
-1
40
-0.5
40
-0.5
40
-0.5
40
-0.16540818736828095
40
-0.16540818736828095
40
-0.16540818736828095
40
0
40
0
40
0
40
0
10
-76.109830036554186
20
11.003732150745858
30
0
10
-76.095055406388838
20
10.992124973062236
30
0
10
-76.080280776223475
20
10.980517795378615
30
0
10
-76.065506146058112
20
10.968910617694991
30
0
10
-75.723322684320749
20
10.70008600439982
30
0
10
-75.362439510737047
20
10.482804421715992
30
0
10
-74.993299098467361
20
10.329964869870878
30
0
10
-74.746276379154267
20
10.227687144483799
30
0
10
-74.499479265097406
20
10.153256373540449
30
0
10
-74.243551241784942
20
10.120169194643536
30
0
10
-74.117031139275866
20
10.103812278305922
30
0
10
-74.001124715553189
20
10.085392162490756
30
0
10
-73.854279746976857
20
10.116686147995191
30
0
0
LINE
5
104
100
AcDbEntity
8
PERIMETER
100
AcDbLine
10
-73.854279746976857
20
10.116686147995191
30
0
11
-73.025306736965959
21
10.293347763373346
31
-7.7037197775489434e-32
0
ARC
5
105
100
AcDbEntity
8
PERIMETER
100
AcDbCircle
10
-72.884617419624291
20
9.63317239577324
30
0
40
0.67500000000000071
210
-3.5202978317952354e-32
220
9.2109780638126651e-32
230
1
100
AcDbArc
50
20.916107233343375
51
102.03028114281295
0
ARC
5
106
100
AcDbEntity
8
PERIMETER
100
AcDbCircle
10
-68
20
11.500000000000004
30
0
40
4.5542000000000025
210
2.5078383114269161e-48
220
9.5845823419049086e-49
230
1
100
AcDbArc
50
200.9161072333435
51
204.08389276665639
0
ARC
5
107
100
AcDbEntity
8
PERIMETER
100
AcDbCircle
10
-72.773992559173251
20
9.3661003573367196
30
0
40
0.67500000000000204
210
-0
220
0
230
1
100
AcDbArc
50
-57.03028114281274
51
24.083892766656781
0
LINE
5
108
100
AcDbEntity
8
PERIMETER
100
AcDbLine
10
-72.40666045030369
20
8.7998035078015615
30
0
11
-73.117751513312271
21
8.3385496972115085
31
0
0
SPLINE
5
109
100
AcDbEntity
8
PERIMETER
100
AcDbSpline
70
0
71
3
72
14
73
10
74
0
42
0.000000001
43
0.0000000001
44
0.0000000001
40
0
40
0
40
0
40
0
40
0.21172798801242959
40
0.21172798801242959
40
0.21172798801242959
40
1
40
1
40
1
40
1.0220983775145447
40
1.0220983775145447
40
1.0220983775145447
40
1.0220983775145447
10
-73.117751513312271
20
8.3385496972115085
30
0
10
-73.278988683858856
20
8.233962165188963
30
0
10
-73.361388051398166
20
8.1070218999479362
30
0
10
-73.453222558387637
20
7.9749080877152476
30
0
10
-73.79512620690393
20
7.4830429282829698
30
0
10
-73.996931651550298
20
6.8535054327667897
30
0
10
-74.07871099322351
20
6.1723628140646785
30
0
10
-74.080950720352448
20
6.1537080588346802
30
0
10
-74.083190447481385
20
6.1350533036046828
30
0
10
-74.085430174610337
20
6.1163985483746846
30
0
0
ARC
5
10A
100
AcDbEntity
8
PERIMETER
100
AcDbCircle
10
-68
20
11.500000000000004
30
0
40
8.1250000000000071
210
0
220
0
230
1
100
AcDbArc
50
221.4982445978502
51
228.50175540214917
0
SPLINE
5
10B
100
AcDbEntity
8
PERIMETER
100
AcDbSpline
70
0
71
3
72
17
73
13
74
0
42
0.000000001
43
0.0000000001
44
0.0000000001
40
-1.02209837751454
40
-1.02209837751454
40
-1.02209837751454
40
-1.02209837751454
40
-1
40
-1
40
-1
40
-0.5
40
-0.5
40
-0.5
40
-0.16540818737368412
40
-0.16540818737368412
40
-0.16540818737368412
40
0
40
0
40
0
40
0
10
-73.383601451625381
20
5.4145698253897283
30
0
10
-73.364946696395407
20
5.4168095525186475
30
0
10
-73.346291941165418
20
5.4190492796475702
30
0
10
-73.32763718593543
20
5.4212890067764921
30
0
10
-72.895589232719374
20
5.4731615459700329
30
0
10
-72.486765012918909
20
5.5747032046851537
30
0
10
-72.117669440651284
20
5.7276510098671674
30
0
10
-71.870676727535908
20
5.8300011766135329
30
0
10
-71.64353431175023
20
5.9518825866752803
30
0
10
-71.439169702404087
20
6.109454858882895
30
0
10
-71.33814039349798
20
6.1873519948636932
30
0
10
-71.243157186494074
20
6.2562852242595124
30
0
10
-71.161450302788481
20
6.3822484866877769
30
0
0
LINE
5
10C
100
AcDbEntity
8
PERIMETER
100
AcDbLine
10
-71.161450302788495
20
6.3822484866877769
30
0
11
-70.700196492198458
21
7.0933395496963119
31
0
0
ARC
5
10D
100
AcDbEntity
8
PERIMETER
100
AcDbCircle
10
-70.133899642663295
20
6.7260074408267592
30
0
40
0.6750000000000016
210
4.023918581623686e-32
220
9.0023715189412021e-32
230
1
100
AcDbArc
50
65.916107233343126
51
147.03028114281361
0
ARC
5
10E
100
AcDbEntity
8
PERIMETER
100
AcDbCircle
10
-68
20
11.500000000000004
30
0
40
4.554199999999998
210
-5.9640442725309348e-33
220
-1.3342850062108182e-32
230
1
100
AcDbArc
50
245.91610723334347
51
249.08389276665639
0
ARC
5
10F
100
AcDbEntity
8
PERIMETER
100
AcDbCircle
10
-69.866827604226771
20
6.6153825803757229
30
0
40
0.67499999999999716
210
3.2607892498941244e-32
220
9.3872870427870072e-32
230
1
100
AcDbArc
50
-12.03028114281345
51
69.083892766656547
0
LINE
5
110
100
AcDbEntity
8
PERIMETER
100
AcDbLine
10
-69.206652236626667
20
6.474693263034049
30
-8.320017359752739e-33
11
-69.383313852004846
21
5.6457202530230646
31
0
0
SPLINE
5
111
100
AcDbEntity
8
PERIMETER
100
AcDbSpline
70
0
71
3
72
14
73
10
74
0
42
0.000000001
43
0.0000000001
44
0.0000000001
40
0
40
0
40
0
40
0
40
0.21172798799978404
40
0.21172798799978404
40
0.21172798799978404
40
1
40
1
40
1
40
1.0220983775145234
40
1.0220983775145234
40
1.0220983775145234
40
1.0220983775145234
10
-69.383313852004846
20
5.6457202530230646
30
0
10
-69.423371195553813
20
5.4577538032434862
30
0
10
-69.391876024753557
20
5.3097283293385624
30
0
10
-69.363394254878045
20
5.1513729541906619
30
0
10
-69.257355453597228
20
4.5618093761387506
30
0
10
-68.954903219900814
20
3.9739611456568555
30
0
10
-68.531089382305012
20
3.4344938539418823
30
0
10
-68.519482204621383
20
3.4197192237765206
30
0
10
-68.507875026937754
20
3.4049445936111589
30
0
10
-68.496267849254124
20
3.3901699634457962
30
0
0
ARC
5
112
100
AcDbEntity
8
PERIMETER
100
AcDbCircle
10
-68
20
11.500000000000004
30
0
40
8.1250000000000071
210
0
220
0
230
1
100
AcDbArc
50
266.49824459785083
51
273.50175540214917
0
SPLINE
5
113
100
AcDbEntity
8
PERIMETER
100
AcDbSpline
70
0
71
3
72
17
73
13
74
0
42
0.000000001
43
0.0000000001
44
0.0000000001
40
-1.0220983775145192
40
-1.0220983775145192
40
-1.0220983775145192
40
-1.0220983775145192
40
-1
40
-1
40
-1
40
-0.5
40
-0.5
40
-0.5
40
-0.16540818737891816
40
-0.16540818737891816
40
-0.16540818737891816
40
0
40
0
40
0
40
0
10
-67.503732150745876
20
3.3901699634458082
30
0
10
-67.492124973062261
20
3.4049445936111633
30
0
10
-67.480517795378631
20
3.4197192237765228
30
0
10
-67.468910617695002
20
3.4344938539418823
30
0
10
-67.200086004399154
20
3.7766773156799771
30
0
10
-66.982804421715812
20
4.1375604892634632
30
0
10
-66.829964869870878
20
4.5067009015326391
30
0
10
-66.727687144487021
20
4.7537236208379614
30
0
10
-66.653256373546043
20
5.0005207348876146
30
0
10
-66.620169194646692
20
5.2564487581906549
30
0
10
-66.603812278306293
20
5.3829688607072281
30
0
10
-66.585392162489313
20
5.498875284439495
30
0
10
-66.616686147995168
20
5.6457202530230646
30
0
0
LINE
5
114
100
AcDbEntity
8
PERIMETER
100
AcDbLine
10
-66.616686147995168
20
5.6457202530230628
30
0
11
-66.793347763373362
21
6.4746932630340499
31
-1.2325951644078309e-31
0
ARC
5
115
100
AcDbEntity
8
PERIMETER
100
AcDbCircle
10
-66.133172395773244
20
6.6153825803757229
30
0
40
0.67499999999999949
210
2.3027445159531698e-32
220
8.8007445794879845e-33
230
1
100
AcDbArc
50
110.91610723334345
51
192.03028114281315
0
ARC
5
116
100
AcDbEntity
8
PERIMETER
100
AcDbCircle
10
-68
20
11.500000000000004
30
0
40
4.5542000000000007
210
7.1908589531321028e-48
220
-1.8815125095109517e-47
230
1
100
AcDbArc
50
290.9161072333435
51
294.0838927666565
0
ARC
5
117
100
AcDbEntity
8
PERIMETER
100
AcDbCircle
10
-65.86610035733672
20
6.7260074408267592
30
0
40
0.67500000000000293
210
-1.4532917169308298e-32
220
-6.8194757895156697e-32
230
1
100
AcDbArc
50
32.969718857186507
51
114.08389276665577
0
LINE
5
118
100
AcDbEntity
8
PERIMETER
100
AcDbLine
10
-65.299803507801556
20
7.0933395496963136
30
3.3280069439011372e-32
11
-64.838549697211533
21
6.3822484866877893
31
0
0
SPLINE
5
119
100
AcDbEntity
8
PERIMETER
100
AcDbSpline
70
0
71
3
72
14
73
10
74
0
42
0.000000001
43
0.0000000001
44
0.0000000001
40
0
40
0
40
0
40
0
40
0.21172798799008755
40
0.21172798799008755
40
0.21172798799008755
40
1
40
1
40
1
40
1.0220983775145378
40
1.0220983775145378
40
1.0220983775145378
40
1.0220983775145378
10
-64.838549697211533
20
6.3822484866877884
30
0
10
-64.733962165199813
20
6.2210113161577043
30
0
10
-64.607021899974228
20
6.1386119486238089
30
0
10
-64.474908087757086
20
6.0467774416414688
30
0
10
-63.983042928316848
20
5.7048737931058922
30
0
10
-63.353505432796013
20
5.5030683484526408
30
0
10
-62.672362814064577
20
5.4212890067764921
30
0
10
-62.653708058834596
20
5.4190492796475711
30
0
10
-62.635053303604622
20
5.4168095525186484
30
0
10
-62.616398548374633
20
5.4145698253897265
30
0
0
ARC
5
11A
100
AcDbEntity
8
PERIMETER
100
AcDbCircle
10
-68
20
11.500000000000004
30
0
40
8.1250000000000089
210
-0
220
0
230
1
100
AcDbArc
50
311.49824459785077
51
318.50175540214951
0
SPLINE
5
11B
100
AcDbEntity
8
PERIMETER
100
AcDbSpline
70
0
71
3
72
17
73
13
74
0
42
0.000000001
43
0.0000000001
44
0.0000000001
40
-1.0220983775145489
40
-1.0220983775145489
40
-1.0220983775145489
40
-1.0220983775145489
40
-1
40
-1
40
-1
40
-0.5
40
-0.5
40
-0.5
40
-0.16540818736955948
40
-0.16540818736955948
40
-0.16540818736955948
40
0
40
0
40
0
40
0
10
-61.914569825389677
20
6.1163985483746686
30
0
10
-61.916809552518622
20
6.1350533036046748
30
0
10
-61.919049279647567
20
6.1537080588346758
30
0
10
-61.921289006776504
20
6.1723628140646767
30
0
10
-61.973161545969539
20
6.60441076727348
30
0
10
-62.074703204684951
20
7.0132349870806312
30
0
10
-62.227651009867174
20
7.3823305593487358
30
0
10
-62.330001176614687
20
7.6293232724668698
30
0
10
-62.451882586677769
20
7.8564656882552741
30
0
10
-62.609454858888718
20
8.0608302976034878
30
0
10
-62.687351994868266
20
8.1618596065068481
30
0
10
-62.756285224262705
20
8.256842813507939
30
0
10
-62.882248486687743
20
8.3385496972115085
30
0
0
LINE
5
11C
100
AcDbEntity
8
PERIMETER
100
AcDbLine
10
-62.882248486687743
20
8.3385496972115085
30
0
11
-63.593339549696317
21
8.7998035078015597
31
0
0
ARC
5
11D
100
AcDbEntity
8
PERIMETER
100
AcDbCircle
10
-63.226007440826763
20
9.3661003573367196
30
0
40
0.67500000000000393
210
6.2745114613590292e-32
220
7.9963918735352512e-32
230
1
100
AcDbArc
50
155.91610723334347
51
237.03028114281329
0
ARC
5
11E
100
AcDbEntity
8
PERIMETER
100
AcDbCircle
10
-68
20
11.500000000000004
30
0
40
4.5541999999999989
210
-3.3357125155270592e-33
220
1.4910110681327481e-33
230
1
100
AcDbArc
50
335.91610723334344
51
339.08389276665616
0
ARC
5
11F
100
AcDbEntity
8
PERIMETER
100
AcDbCircle
10
-63.115382580375723
20
9.63317239577324
30
0
40
0.67500000000000204
210
0
220
-0
230
1
100
AcDbArc
50
77.969718857187104
51
159.08389276665784
0
LINE
5
120
100
AcDbEntity
8
PERIMETER
100
AcDbLine
10
-62.974693263034055
20
10.293347763373347
30
0
11
-62.145720253023214
21
10.1166861479952
31
-4.622231866529366e-32
0
SPLINE
5
121
100
AcDbEntity
8
PERIMETER
100
AcDbSpline
70
0
71
3
72
14
73
10
74
0
42
0.000000001
43
0.0000000001
44
0.0000000001
40
0
40
0
40
0
40
0
40
0.21172798799797587
40
0.21172798799797587
40
0.21172798799797587
40
1
40
1
40
1
40
1.0220983775145223
40
1.0220983775145223
40
1.0220983775145223
40
1.0220983775145223
10
-62.145720253023207
20
10.1166861479952
30
0
10
-61.95775380324153
20
10.076628804445559
30
0
10
-61.809728329341276
20
10.108123975246206
30
0
10
-61.651372954194713
20
10.136605745121233
30
0
10
-61.061809376141426
20
10.242644546401397
30
0
10
-60.473961145656958
20
10.545096780099287
30
0
10
-59.934493853941902
20
10.96891061769499
30
0
10
-59.919719223776539
20
10.980517795378617
30
0
10
-59.90494459361117
20
10.992124973062243
30
0
10
-59.8901699634458
20
11.003732150745869
30
0
0
ARC
5
122
100
AcDbEntity
8
PERIMETER
100
AcDbCircle
10
-68
20
11.500000000000004
30
0
40
8.1250000000000124
210
-0
220
0
230
1
100
AcDbArc
50
-3.5017554021492621
51
3.5017554021492687
0
SPLINE
5
123
100
AcDbEntity
8
PERIMETER
100
AcDbSpline
70
0
71
3
72
17
73
13
74
0
42
0.000000001
43
0.0000000001
44
0.0000000001
40
-1.0220983775145218
40
-1.0220983775145218
40
-1.0220983775145218
40
-1.0220983775145218
40
-1
40
-1
40
-1
40
-0.5
40
-0.5
40
-0.5
40
-0.16540818736788293
40
-0.16540818736788293
40
-0.16540818736788293
40
0
40
0
40
0
40
0
10
-59.8901699634458
20
11.996267849254137
30
0
10
-59.90494459361117
20
12.007875026937763
30
0
10
-59.919719223776539
20
12.019482204621388
30
0
10
-59.934493853941902
20
12.031089382305016
30
0
10
-60.276677315679265
20
12.299913995600187
30
0
10
-60.637560489263365
20
12.517195578284152
30
0
10
-61.006700901532646
20
12.670035130129126
30
0
10
-61.253723620845804
20
12.772312855516235
30
0
10
-61.500520734903638
20
12.84674362645984
30
0
10
-61.756448758215996
20
12.879830805356589
30
0
10
-61.88296886072456
20
12.896187721694066
30
0
10
-61.998875284447521
20
12.914607837509102
30
0
10
-62.145720253023164
20
12.883313852004816
30
0
0
LINE
5
124
100
AcDbEntity
8
PERIMETER
100
AcDbLine
10
-62.145720253023164
20
12.883313852004816
30
0
11
-62.974693263034062
21
12.70665223662666
31
0
0
ARC
5
125
100
AcDbEntity
8
PERIMETER
100
AcDbCircle
10
-63.115382580375723
20
13.366827604226765
30
0
40
0.67499999999999916
210
2.3027445159531704e-32
220
8.8007445794880556e-33
230
1
100
AcDbArc
50
200.91610723334293
51
282.03028114281233
0
ARC
5
126
100
AcDbEntity
8
PERIMETER
100
AcDbCircle
10
-68
20
11.500000000000004
30
0
40
4.5542000000000034
210
-3.413008976918854e-33
220
-1.3044009027171587e-33
230
1
100
AcDbArc
50
20.916107233343624
51
24.083892766656561
0
ARC
5
127
100
AcDbEntity
8
PERIMETER
100
AcDbCircle
10
-63.226007440826763
20
13.633899642663289
30
0
40
0.67500000000000104
210
-1.4532917169308352e-32
220
-6.8194757895156708e-32
230
1
100
AcDbArc
50
122.96971885718678
51
204.08389276665619
0
LINE
5
128
100
AcDbEntity
8
PERIMETER
100
AcDbLine
10
-63.593339549696317
20
14.200196492198447
30
3.3280069439011383e-32
11
-62.882248486687722
21
14.661450302788507
31
3.0814879110195774e-32
0
SPLINE
5
129
100
AcDbEntity
8
PERIMETER
100
AcDbSpline
70
0
71
3
72
14
73
10
74
0
42
0.000000001
43
0.0000000001
44
0.0000000001
40
0
40
0
40
0
40
0
40
0.21172798799363057
40
0.21172798799363057
40
0.21172798799363057
40
1
40
1
40
1
40
1.0220983775145414
40
1.0220983775145414
40
1.0220983775145414
40
1.0220983775145414
10
-62.882248486687722
20
14.661450302788507
30
0
10
-62.721011316155952
20
14.766037834801482
30
0
10
-62.638611948620181
20
14.892978100030195
30
0
10
-62.546777441636863
20
15.025091912249543
30
0
10
-62.204873793104923
20
15.516957071687569
30
0
10
-62.003068348451642
20
16.146494567217143
30
0
10
-61.921289006776504
20
16.82763718593533
30
0
10
-61.919049279647567
20
16.846291941165326
30
0
10
-61.916809552518622
20
16.864946696395322
30
0
10
-61.914569825389691
20
16.883601451625317
30
0
0
ARC
5
12A
100
AcDbEntity
8
PERIMETER
100
AcDbCircle
10
-68
20
11.500000000000004
30
0
40
8.1249999999999964
210
-3.2668559342140767e-32
220
3.6927368893864295e-32
230
1
100
AcDbArc
50
41.498244597850316
51
48.501755402149385
0
SPLINE
5
12B
100
AcDbEntity
8
PERIMETER
100
AcDbSpline
70
0
71
3
72
17
73
13
74
0
42
0.000000001
43
0.0000000001
44
0.0000000001
40
-1.0220983775145602
40
-1.0220983775145602
40
-1.0220983775145602
40
-1.0220983775145602
40
-1
40
-1
40
-1
40
-0.5
40
-0.5
40
-0.5
40
-0.16540818735952967
40
-0.16540818735952967
40
-0.16540818735952967
40
0
40
0
40
0
40
0
10
-62.616398548374619
20
17.585430174610298
30
0
10
-62.635053303604607
20
17.583190447481375
30
0
10
-62.65370805883461
20
17.580950720352444
30
0
10
-62.672362814064613
20
17.578710993223513
30
0
10
-63.104410767278054
20
17.526838454030155
30
0
10
-63.513234987081105
20
17.425296795314857
30
0
10
-63.882330559348731
20
17.272348990132844
30
0
10
-64.129323272474011
20
17.169998823382326
30
0
10
-64.356465688270092
20
17.048117413315168
30
0
10
-64.560830297621877
20
16.890545141097114
30
0
10
-64.661859606517851
20
16.812648005121112
30
0
10
-64.756842813512179
20
16.743714775730908
30
0
10
-64.838549697211533
20
16.617751513312221
30
0
0
LINE
5
12C
100
AcDbEntity
8
PERIMETER
100
AcDbLine
10
-64.838549697211533
20
16.617751513312221
30
0
11
-65.29980350780157
21
15.906660450303697
31
0
0
ARC
5
12D
100
AcDbEntity
8
PERIMETER
100
AcDbCircle
10
-65.86610035733672
20
16.273992559173251
30
0
40
0.67500000000000049
210
4.023918581623692e-32
220
9.0023715189412076e-32
230
1
100
AcDbArc
50
245.91610723334313
51
327.0302811428129
0
ARC
5
12E
100
AcDbEntity
8
PERIMETER
100
AcDbCircle
10
-68
20
11.500000000000004
30
0
40
4.5542000000000025
210
-5.9640442725309184e-33
220
-1.334285006210816e-32
230
1
100
AcDbArc
50
65.916107233343652
51
69.083892766656547
0
ARC
5
12F
100
AcDbEntity
8
PERIMETER
100
AcDbCircle
10
-66.133172395773244
20
16.384617419624288
30
0
40
0.67499999999999716
210
0
220
0
230
1
100
AcDbArc
50
167.96971885718645
51
249.08389276665653
0
LINE
5
130
100
AcDbEntity
8
PERIMETER
100
AcDbLine
10
-66.793347763373347
20
16.525306736965963
30
0
11
-66.616686147995168
21
17.354279746976946
31
0
0
SPLINE
5
131
100
AcDbEntity
8
PERIMETER
100
AcDbSpline
70
0
71
3
72
14
73
10
74
0
42
0.000000001
43
0.0000000001
44
0.0000000001
40
0
40
0
40
0
40
0
40
0.2117279879986087
40
0.2117279879986087
40
0.2117279879986087
40
1
40
1
40
1
40
1.0220983775145207
40
1.0220983775145207
40
1.0220983775145207
40
1.0220983775145207
10
-66.616686147995168
20
17.354279746976946
30
0
10
-66.576628804446415
20
17.542246196755528
30
0
10
-66.608123975246272
20
17.690271670659605
30
0
10
-66.636605745121486
20
17.848627045806715
30
0
10
-66.742644546401962
20
18.438190623859832
30
0
10
-67.045096780096983
20
19.026038854340531
30
0
10
-67.468910617695016
20
19.565506146058148
30
0
10
-67.480517795378645
20
19.5802807762235
30
0
10
-67.492124973062275
20
19.595055406388852
30
0
10
-67.503732150745904
20
19.609830036554211
30
0
0
ARC
5
132
100
AcDbEntity
8
PERIMETER
100
AcDbCircle
10
-68
20
11.500000000000004
30
0
40
8.1250000000000071
210
-1.1815039549732277e-46
220
7.2300211468908618e-48
230
1
100
AcDbArc
50
86.498244597850956
51
93.501755402149968
0
SPLINE
5
133
100
AcDbEntity
8
PERIMETER
100
AcDbSpline
70
0
71
3
72
17
73
13
74
0
42
0.000000001
43
0.0000000001
44
0.0000000001
40
-1.0220983775145651
40
-1.0220983775145651
40
-1.0220983775145651
40
-1.0220983775145651
40
-1
40
-1
40
-1
40
-0.5
40
-0.5
40
-0.5
40
-0.16540818737046659
40
-0.16540818737046659
40
-0.16540818737046659
40
0
40
0
40
0
40
0
10
-68.496267849254224
20
19.6098300365542
30
0
10
-68.507875026937853
20
19.595055406388809
30
0
10
-68.519482204621468
20
19.580280776223411
30
0
10
-68.531089382305098
20
19.56550614605802
30
0
10
-68.799913995596299
20
19.223322684325037
30
0
10
-69.017195578284145
20
18.862439510736561
30
0
10
-69.170035130129122
20
18.493299098467382
30
0
10
-69.272312855515679
20
18.246276379155685
30
0
10
-69.346743626458476
20
17.999479265099904
30
0
10
-69.379830805355823
20
17.743551241789959
30
0
10
-69.396187721693977
20
17.617031139279632
30
0
10
-69.414607837509863
20
17.501124715555608
30
0
10
-69.383313852004804
20
17.354279746976768
30
0
0
LINE
5
134
100
AcDbEntity
8
PERIMETER
100
AcDbLine
10
-69.383313852004804
20
17.354279746976765
30
0
11
-69.206652236626653
21
16.525306736965959
31
0
0
ARC
5
135
100
AcDbEntity
8
PERIMETER
100
AcDbCircle
10
-69.866827604226771
20
16.384617419624288
30
0
40
0.67499999999999627
210
2.3027445159531789e-32
220
8.8007445794877601e-33
230
1
100
AcDbArc
50
-69.083892766656476
51
12.030281142812987
0
ARC
5
136
100
AcDbEntity
8
PERIMETER
100
AcDbCircle
10
-68
20
11.500000000000004
30
0
40
4.5542000000000069
210
-7.8701705684675826e-48
220
2.0592566858938168e-47
230
1
100
AcDbArc
50
110.91610723334361
51
114.08389276665649
0
ARC
5
137
100
AcDbEntity
8
PERIMETER
100
AcDbCircle
10
-70.133899642663295
20
16.273992559173251
30
0
40
0.67500000000000238
210
-1.4532917169308361e-32
220
-6.819475789515673e-32
230
1
100
AcDbArc
50
212.96971885718648
51
294.08389276665702
0
LINE
5
138
100
AcDbEntity
8
PERIMETER
100
AcDbLine
10
-70.700196492198458
20
15.906660450303697
30
-3.3280069439011339e-32
11
-71.161450302788566
21
16.617751513312378
31
0
0
SPLINE
5
139
100
AcDbEntity
8
PERIMETER
100
AcDbSpline
70
0
71
3
72
14
73
10
74
0
42
0.000000001
43
0.0000000001
44
0.0000000001
40
0
40
0
40
0
40
0
40
0.21172798801253484
40
0.21172798801253484
40
0.21172798801253484
40
1
40
1
40
1
40
1.0220983775145041
40
1.0220983775145041
40
1.0220983775145041
40
1.0220983775145041
10
-71.161450302788566
20
16.617751513312378
30
0
10
-71.266037834809694
20
16.778988683856426
30
0
10
-71.392978100053014
20
16.861388051398787
30
0
10
-71.525091912284921
20
16.953222558387743
30
0
10
-72.016957071714046
20
17.295126206901973
30
0
10
-72.646494567215839
20
17.496931651549097
30
0
10
-73.327637185935487
20
17.578710993223524
30
0
10
-73.346291941165461
20
17.58095072035244
30
0
10
-73.36494669639545
20
17.58319044748135
30
0
10
-73.38360145162541
20
17.585430174610263
30
0
0
ARC
5
13A
100
AcDbEntity
8
PERIMETER
100
AcDbCircle
10
-68
20
11.500000000000004
30
0
40
8.1250000000000213
210
4.0997615184794428e-48
220
3.6269386762978508e-48
230
1
100
AcDbArc
50
131.49824459785111
51
138.50175540214886
0
SPLINE
5
13B
100
AcDbEntity
8
PERIMETER
100
AcDbSpline
70
0
71
3
72
17
73
13
74
0
42
0.000000001
43
0.0000000001
44
0.0000000001
40
-1.0220983775145316
40
-1.0220983775145316
40
-1.0220983775145316
40
-1.0220983775145316
40
-1
40
-1
40
-1
40
-0.5
40
-0.5
40
-0.5
40
-0.16540818736970397
40
-0.16540818736970397
40
-0.16540818736970397
40
0
40
0
40
0
40
0
10
-74.085430174610266
20
16.883601451625442
30
0
10
-74.083190447481343
20
16.864946696395457
30
0
10
-74.080950720352433
20
16.846291941165472
30
0
10
-74.078710993223524
20
16.827637185935487
30
0
10
-74.02683845403017
20
16.395589232719626
30
0
10
-73.925296795314992
20
15.986765012919243
30
0
10
-73.772348990132855
20
15.617669440651278
30
0
10
-73.669998823385356
20
15.370676727533173
30
0
10
-73.54811741332108
20
15.143534311743156
30
0
10
-73.390545141111474
20
14.939169702396757
30
0
10
-73.312648005132502
20
14.838140393494164
30
0
10
-73.243714775737658
20
14.743157186492271
30
0
10
-73.117751513312257
20
14.66145030278849
30
0
0
LINE
5
13C
100
AcDbEntity
8
PERIMETER
100
AcDbLine
10
-73.117751513312257
20
14.66145030278849
30
0
11
-72.40666045030369
21
14.200196492198449
31
0
0
ARC
5
13D
100
AcDbEntity
8
PERIMETER
100
AcDbCircle
10
-72.773992559173251
20
13.633899642663289
30
0
40
0.67500000000000338
210
-2.2505928797352937e-32
220
1.0059796454059304e-32
230
1
100
AcDbArc
50
-24.083892766656369
51
57.030281142812804
0
ARC
5
13E
100
AcDbEntity
8
PERIMETER
100
AcDbCircle
10
-68
20
11.500000000000004
30
0
40
4.5541999999999998
210
3.3357125155270524e-33
220
-1.4910110681327318e-33
230
1
100
AcDbArc
50
155.91610723334352
51
159.08389276665653
0
ARC
5
13F
100
AcDbEntity
8
PERIMETER
100
AcDbCircle
10
-72.884617419624291
20
13.366827604226767
30
0
40
0.67500000000000093
210
-2.0552648561681372e-32
220
-9.6441951498080139e-32
230
1
100
AcDbArc
50
257.96971885718705
51
339.08389276665656
0
LINE
5
140
100
AcDbEntity
8
PERIMETER
100
AcDbLine
10
-73.025306736965959
20
12.706652236626661
30
-6.6560138878022941e-32
11
-73.854279746976857
21
12.883313852004816
31
0
0
ENDSEC
0
SECTION
2
OBJECTS
0
DICTIONARY
5
C
100
AcDbDictionary
3
ACAD_GROUP
350
D
3
ACAD_MLINESTYLE
350
17
0
DICTIONARY
5
D
100
AcDbDictionary
0
DICTIONARY
5
1A
330
C
100
AcDbDictionary
0
DICTIONARY
5
17
100
AcDbDictionary
0
ENDSEC
0
EOF
