0
SECTION
2
HEADER
9
$INSUNITS
70
4
9
$ACADVER
1
AC1014
9
$HANDSEED
5
FFFF
0
ENDSEC
0
SECTION
2
TABLES
0
TABLE
2
VPORT
5
8
100
AcDbSymbolTable
0
ENDTAB
0
TABLE
2
LTYPE
5
5
100
AcDbSymbolTable
70
2
0
LTYPE
5
14
100
AcDbSymbolTableRecord
100
AcDbLinetypeTableRecord
2
BYBLOCK
70
0
0
LTYPE
5
15
100
AcDbSymbolTableRecord
100
AcDbLinetypeTableRecord
2
BYLAYER
70
0
0
ENDTAB
0
TABLE
2
LAYER
5
2
100
AcDbSymbolTable
70
3
0
LAYER
5
50
100
AcDbSymbolTableRecord
100
AcDbLayerTableRecord
2
0
70
0
6
CONTINUOUS
0
LAYER
5
51
100
AcDbSymbolTableRecord
100
AcDbLayerTableRecord
2
CUTOUTS
70
0
62
1
6
CONTINUOUS
0
LAYER
5
52
100
AcDbSymbolTableRecord
100
AcDbLayerTableRecord
2
PERIMETER
70
0
62
5
6
CONTINUOUS
0
ENDTAB
0
TABLE
2
STYLE
5
3
100
AcDbSymbolTable
70
1
0
STYLE
5
11
100
AcDbSymbolTableRecord
100
AcDbTextStyleTableRecord
2
STANDARD
70
0
0
ENDTAB
0
TABLE
2
VIEW
5
6
100
AcDbSymbolTable
0
ENDTAB
0
TABLE
2
UCS
5
7
100
AcDbSymbolTable
0
ENDTAB
0
TABLE
2
APPID
5
9
100
AcDbSymbolTable
70
1
0
APPID
5
12
100
AcDbSymbolTableRecord
100
AcDbRegAppTableRecord
2
ACAD
70
0
0
ENDTAB
0
TABLE
2
DIMSTYLE
5
A
100
AcDbSymbolTable
0
ENDTAB
0
TABLE
2
BLOCK_RECORD
5
1
100
AcDbSymbolTable
70
2
0
BLOCK_RECORD
5
1F
100
AcDbSymbolTableRecord
100
AcDbBlockTableRecord
2
*MODEL_SPACE
0
BLOCK_RECORD
5
1B
100
AcDbSymbolTableRecord
100
AcDbBlockTableRecord
2
*PAPER_SPACE
0
ENDTAB
0
ENDSEC
0
SECTION
2
BLOCKS
0
BLOCK
5
20
100
AcDbEntity
100
AcDbBlockBegin
2
*MODEL_SPACE
0
ENDBLK
5
21
100
AcDbEntity
100
AcDbBlockEnd
0
BLOCK
5
1C
100
AcDbEntity
100
AcDbBlockBegin
2
*PAPER_SPACE
0
ENDBLK
5
1D
100
AcDbEntity
100
AcDbBlockEnd
0
ENDSEC
0
SECTION
2
ENTITIES
0
CIRCLE
5
100
100
AcDbEntity
8
CUTOUTS
100
AcDbCircle
10
-87.054844029776248
20
14.913947939711287
30
0
40
1.7050000000000054
210
0
220
0
230
1
0
SPLINE
5
101
100
AcDbEntity
8
PERIMETER
100
AcDbSpline
70
0
71
3
72
14
73
10
74
0
42
0.000000001
43
0.0000000001
44
0.0000000001
40
0
40
0
40
0
40
0
40
0.24757690587216655
40
0.24757690587216655
40
0.24757690587216655
40
1
40
1
40
1
40
1.0242265215321953
40
1.0242265215321953
40
1.0242265215321953
40
1.0242265215321953
10
-76.593179631792296
20
8.9770840378110837
30
0
10
-76.381096157981361
20
8.8598829737212963
30
0
10
-76.180936612062894
20
8.827071200127083
30
0
10
-75.970623089285681
20
8.7872573014586166
30
0
10
-75.331448966854907
20
8.6662569330281016
30
0
10
-74.643160448636451
20
8.6842964569484025
30
0
10
-73.944844328242738
20
8.7916154772497972
30
0
10
-73.922710886526801
20
8.7950170015902565
30
0
10
-73.90057744481085
20
8.7984185259307139
30
0
10
-73.878444003094913
20
8.801820050271175
30
0
0
ARC
5
102
100
AcDbEntity
8
PERIMETER
100
AcDbCircle
10
-87.054844029776248
20
14.913947939711287
30
0
40
14.524999999999997
210
-0
220
0
230
1
100
AcDbArc
50
335.11486055616723
51
339.88513944383277
0
SPLINE
5
103
100
AcDbEntity
8
PERIMETER
100
AcDbSpline
70
0
71
3
72
17
73
13
74
0
42
0.000000001
43
0.0000000001
44
0.0000000001
40
-1.0242265215321975
40
-1.0242265215321975
40
-1.0242265215321975
40
-1.0242265215321975
40
-1
40
-1
40
-1
40
-0.5
40
-0.5
40
-0.5
40
-0.14626674255205163
40
-0.14626674255205163
40
-0.14626674255205163
40
0
40
0
40
0
40
0
10
-73.41579514118078
20
9.9187532073208153
30
0
10
-73.429040606981587
20
9.9368091549766593
30
0
10
-73.442286072782409
20
9.9548651026325032
30
0
10
-73.455531538583216
20
9.9729210502883472
30
0
10
-73.733233047480525
20
10.351478058701623
30
0
10
-74.036251664376877
20
10.696172583270432
30
0
10
-74.365197018747722
20
10.995007677976776
30
0
10
-74.597914842195237
20
11.206423500956909
30
0
10
-74.839944944272304
20
11.396315518382051
30
0
10
-75.107533995600249
20
11.549182743080307
30
0
10
-75.218180586092501
20
11.612392493729427
30
0
10
-75.321773584099077
20
11.674793333485916
30
0
10
-75.459333467448701
20
11.714430825414219
30
0
0
LINE
5
104
100
AcDbEntity
8
PERIMETER
100
AcDbLine
10
-75.459333467448687
20
11.714430825414219
30
0
11
-75.869816908959251
21
11.832710469910806
31
-3.4666738998970245e-32
0
ARC
5
105
100
AcDbEntity
8
PERIMETER
100
AcDbCircle
10
-75.682921712767509
20
12.481320665359853
30
0
40
0.67499999999999616
210
-5.1567513073507539e-33
220
-2.4106518862804801e-32
230
1
100
AcDbArc
50
167.9255402227553
51
253.92581306234896
0
ARC
5
106
100
AcDbEntity
8
PERIMETER
100
AcDbCircle
10
-87.054844029776248
20
14.913947939711287
30
0
40
10.954200000000004
210
-2.728724672131977e-49
220
5.8371574097860806e-50
230
1
100
AcDbArc
50
347.92554022275527
51
349.57445977724461
0
ARC
5
107
100
AcDbEntity
8
PERIMETER
100
AcDbCircle
10
-75.617631600769798
20
12.809556223851219
30
0
40
0.67499999999999893
210
0
220
-0
230
1
100
AcDbArc
50
83.574186937651291
51
169.57445977724632
0
LINE
5
108
100
AcDbEntity
8
PERIMETER
100
AcDbLine
10
-75.5420878713946
20
13.48031560317594
30
0
11
-75.117586961013345
21
13.432506533512761
31
0
0
SPLINE
5
109
100
AcDbEntity
8
PERIMETER
100
AcDbSpline
70
0
71
3
72
14
73
10
74
0
42
0.000000001
43
0.0000000001
44
0.0000000001
40
0
40
0
40
0
40
0
40
0.24757690587517336
40
0.24757690587517336
40
0.24757690587517336
40
1
40
1
40
1
40
1.0242265215322157
40
1.0242265215322157
40
1.0242265215322157
40
1.0242265215322157
10
-75.117586961013345
20
13.432506533512763
30
0
10
-74.876796474888863
20
13.405387700916997
30
0
10
-74.679316645036607
20
13.451671316921699
30
0
10
-74.469776166530778
20
13.495371571602661
30
0
10
-73.832951440797913
20
13.628183154835195
30
0
10
-73.203959193288057
20
13.908246114371039
30
0
10
-72.599868433485412
20
14.274629970501831
30
0
10
-72.580721506709892
20
14.286242670665231
30
0
10
-72.561574579934359
20
14.297855370828634
30
0
10
-72.542427653158853
20
14.309468070992033
30
0
0
ARC
5
10A
100
AcDbEntity
8
PERIMETER
100
AcDbCircle
10
-87.054844029776248
20
14.913947939711287
30
0
40
14.524999999999981
210
-0
220
0
230
1
100
AcDbArc
50
-2.3851394438328635
51
2.3851394438327005
0
SPLINE
5
10B
100
AcDbEntity
8
PERIMETER
100
AcDbSpline
70
0
71
3
72
17
73
13
74
0
42
0.000000001
43
0.0000000001
44
0.0000000001
40
-1.024226521532237
40
-1.024226521532237
40
-1.024226521532237
40
-1.024226521532237
40
-1
40
-1
40
-1
40
-0.5
40
-0.5
40
-0.5
40
-0.14626674255712013
40
-0.14626674255712013
40
-0.14626674255712013
40
0
40
0
40
0
40
0
10
-72.542427653158811
20
15.518427808430538
30
0
10
-72.561574579934359
20
15.530040508593943
30
0
10
-72.580721506709892
20
15.541653208757349
30
0
10
-72.59986843348544
20
15.553265908920757
30
0
10
-73.001298669025658
20
15.79673521428256
30
0
10
-73.413160250928101
20
15.999231226118013
30
0
10
-73.83142537089968
20
16.149436916442149
30
0
10
-74.127333937623774
20
16.255702412691651
30
0
10
-74.423609124185106
20
16.338518850778016
30
0
10
-74.729328926071872
20
16.377347854244285
30
0
10
-74.855742370712164
20
16.393403432096385
30
0
10
-74.975329588825872
20
16.411410966713674
30
0
10
-75.117586961013345
20
16.395389345909805
30
0
0
LINE
5
10C
100
AcDbEntity
8
PERIMETER
100
AcDbLine
10
-75.11758696101333
20
16.395389345909809
30
0
11
-75.5420878713946
21
16.347580276246624
31
0
0
ARC
5
10D
100
AcDbEntity
8
PERIMETER
100
AcDbCircle
10
-75.617631600769798
20
17.018339655571349
30
0
40
0.67500000000000493
210
0
220
0
230
1
100
AcDbArc
50
190.42554022275505
51
276.42581306234865
0
ARC
5
10E
100
AcDbEntity
8
PERIMETER
100
AcDbCircle
10
-87.054844029776248
20
14.913947939711287
30
0
40
10.954199999999993
210
-4.4609483936797268e-33
220
2.4244922667592762e-32
230
1
100
AcDbArc
50
10.425540222755252
51
12.074459777245071
0
ARC
5
10F
100
AcDbEntity
8
PERIMETER
100
AcDbCircle
10
-75.682921712767509
20
17.346575214062717
30
0
40
0.67500000000000093
210
0
220
0
230
1
100
AcDbArc
50
106.07418693765102
51
192.07445977723904
0
LINE
5
110
100
AcDbEntity
8
PERIMETER
100
AcDbLine
10
-75.869816908959251
20
17.995185409511766
30
0
11
-75.459333467448701
21
18.113465054008351
31
0
0
SPLINE
5
111
100
AcDbEntity
8
PERIMETER
100
AcDbSpline
70
0
71
3
72
14
73
10
74
0
42
0.000000001
43
0.0000000001
44
0.0000000001
40
0
40
0
40
0
40
0
40
0.24757690586046424
40
0.24757690586046424
40
0.24757690586046424
40
1
40
1
40
1
40
1.0242265215322237
40
1.0242265215322237
40
1.0242265215322237
40
1.0242265215322237
10
-75.459333467448701
20
18.113465054008351
30
0
10
-75.22649413776918
20
18.180557049334535
30
0
10
-75.061758537928128
20
18.298889793953816
30
0
10
-74.884891742069939
20
18.41945123434439
30
0
10
-74.347367204683707
20
18.785855409634141
30
0
10
-73.873429595726023
20
19.285304757978139
30
0
10
-73.45553153858323
20
19.854974829134211
30
0
10
-73.442286072782395
20
19.87303077679007
30
0
10
-73.429040606981573
20
19.89108672444593
30
0
10
-73.415795141180737
20
19.90914267210179
30
0
0
ARC
5
112
100
AcDbEntity
8
PERIMETER
100
AcDbCircle
10
-87.054844029776248
20
14.913947939711287
30
0
40
14.525000000000009
210
-2.3530815362461754e-49
220
6.4249335273370182e-49
230
1
100
AcDbArc
50
20.114860556167319
51
24.88513944383261
0
SPLINE
5
113
100
AcDbEntity
8
PERIMETER
100
AcDbSpline
70
0
71
3
72
17
73
13
74
0
42
0.000000001
43
0.0000000001
44
0.0000000001
40
-1.0242265215322222
40
-1.0242265215322222
40
-1.0242265215322222
40
-1.0242265215322222
40
-1
40
-1
40
-1
40
-0.5
40
-0.5
40
-0.5
40
-0.1462667425556114
40
-0.1462667425556114
40
-0.1462667425556114
40
0
40
0
40
0
40
0
10
-73.878444003094884
20
21.026075829151377
30
0
10
-73.900577444810835
20
21.029477353491835
30
0
10
-73.922710886526787
20
21.032878877832299
30
0
10
-73.944844328242723
20
21.036280402172764
30
0
10
-74.408889176045051
20
21.107596009800488
30
0
10
-74.866891530637957
20
21.137065326727857
30
0
10
-75.31079934327694
20
21.115774157935697
30
0
10
-75.624849256415715
20
21.100711368952489
30
0
10
-75.930264316055741
20
21.063844175737874
30
0
10
-76.227571800025103
20
20.982723594179401
30
0
10
-76.350506797802183
20
20.949180683047729
30
0
10
-76.46788216612336
20
20.920053428616143
30
0
10
-76.593179631792225
20
20.850811841611517
30
0
0
LINE
5
114
100
AcDbEntity
8
PERIMETER
100
AcDbLine
10
-76.593179631792225
20
20.850811841611513
30
0
11
-76.9670715955491
21
20.644192555254428
31
0
0
ARC
5
115
100
AcDbEntity
8
PERIMETER
100
AcDbCircle
10
-77.293553402499484
20
21.23498408340155
30
0
40
0.67499999999999571
210
0
220
0
230
1
100
AcDbArc
50
212.92554022275493
51
298.92581306234911
0
ARC
5
116
100
AcDbEntity
8
PERIMETER
100
AcDbCircle
10
-87.054844029776248
20
14.913947939711287
30
0
40
10.9542
210
0
220
-0
230
1
100
AcDbArc
50
32.925540222755238
51
34.57445977724462
0
ARC
5
117
100
AcDbEntity
8
PERIMETER
100
AcDbCircle
10
-77.479483910797285
20
21.513248753575354
30
0
40
0.67499999999999882
210
-7.6855690805445405e-33
220
9.6364470548192985e-33
230
1
100
AcDbArc
50
128.57418693765047
51
214.57445977724586
0
LINE
5
118
100
AcDbEntity
8
PERIMETER
100
AcDbLine
10
-77.900364933144942
20
22.040964742557673
30
-8.3200173597528717e-33
11
-77.566391343433509
21
22.307326097547019
31
0
0
SPLINE
5
119
100
AcDbEntity
8
PERIMETER
100
AcDbSpline
70
0
71
3
72
14
73
10
74
0
42
0.000000001
43
0.0000000001
44
0.0000000001
40
0
40
0
40
0
40
0
40
0.24757690588383527
40
0.24757690588383527
40
0.24757690588383527
40
1
40
1
40
1
40
1.024226521532239
40
1.024226521532239
40
1.024226521532239
40
1.024226521532239
10
-77.566391343433509
20
22.307326097547016
30
0
10
-77.37695084741452
20
22.45841477271135
30
0
10
-77.27003897931246
20
22.63078155828785
30
0
10
-77.152772232449564
20
22.80984979800327
30
0
10
-76.796381121588411
20
23.354064851114199
30
0
10
-76.549650855910301
20
23.996863952482627
30
0
10
-76.381566692390521
20
24.683093134372154
30
0
10
-76.376239189662087
20
24.704843475167444
30
0
10
-76.370911686933653
20
24.726593815962733
30
0
10
-76.365584184205218
20
24.748344156758026
30
0
0
ARC
5
11A
100
AcDbEntity
8
PERIMETER
100
AcDbCircle
10
-87.054844029776248
20
14.913947939711287
30
0
40
14.525000000000007
210
8.3454934402770866e-33
220
-9.0709328721167788e-33
230
1
100
AcDbArc
50
42.61486055616718
51
47.385139443832443
0
SPLINE
5
11B
100
AcDbEntity
8
PERIMETER
100
AcDbSpline
70
0
71
3
72
17
73
13
74
0
42
0.000000001
43
0.0000000001
44
0.0000000001
40
-1.024226521532249
40
-1.024226521532249
40
-1.024226521532249
40
-1.024226521532249
40
-1
40
-1
40
-1
40
-0.5
40
-0.5
40
-0.5
40
-0.14626674254676425
40
-0.14626674254676425
40
-0.14626674254676425
40
0
40
0
40
0
40
0
10
-77.220447812729432
20
25.603207785282311
30
0
10
-77.242198153524726
20
25.597880282553874
30
0
10
-77.263948494320047
20
25.592552779825443
30
0
10
-77.285698835115369
20
25.587225277097009
30
0
10
-77.741711673672384
20
25.475530032205143
30
0
10
-78.176128094277772
20
25.327486217863445
30
0
10
-78.578097659143509
20
25.137939577399251
30
0
10
-78.862477666296783
20
25.003841676258133
30
0
10
-79.13053592478748
20
24.852903547701146
30
0
10
-79.374168721505143
20
24.664183254295402
30
0
10
-79.474909533409601
20
24.586148458337391
30
0
10
-79.572203716115439
20
24.514320775309443
30
0
10
-79.66146587194045
20
24.402400626054099
30
0
0
LINE
5
11C
100
AcDbEntity
8
PERIMETER
100
AcDbLine
10
-79.66146587194045
20
24.402400626054099
30
0
11
-79.92782722692985
21
24.068427036342584
31
0
0
ARC
5
11D
100
AcDbEntity
8
PERIMETER
100
AcDbCircle
10
-80.455543215912172
20
24.489308058690249
30
0
40
0.6749999999999976
210
0
220
0
230
1
100
AcDbArc
50
235.42554022275647
51
321.42581306234922
0
ARC
5
11E
100
AcDbEntity
8
PERIMETER
100
AcDbCircle
10
-87.054844029776248
20
14.913947939711287
30
0
40
10.954199999999997
210
0
220
-0
230
1
100
AcDbArc
50
55.425540222755181
51
57.074459777245018
0
ARC
5
11F
100
AcDbEntity
8
PERIMETER
100
AcDbCircle
10
-80.73380788608597
20
24.675238566988043
30
0
40
0.67499999999999882
210
0
220
0
230
1
100
AcDbArc
50
151.0741869376514
51
237.0744597772393
0
LINE
5
120
100
AcDbEntity
8
PERIMETER
100
AcDbLine
10
-81.324599414233091
20
25.001720373938419
30
0
11
-81.117980127876152
21
25.375612337695049
31
0
0
SPLINE
5
121
100
AcDbEntity
8
PERIMETER
100
AcDbSpline
70
0
71
3
72
14
73
10
74
0
42
0.000000001
43
0.0000000001
44
0.0000000001
40
0
40
0
40
0
40
0
40
0.24757690588751793
40
0.24757690588751793
40
0.24757690588751793
40
1
40
1
40
1
40
1.0242265215322042
40
1.0242265215322042
40
1.0242265215322042
40
1.0242265215322042
10
-81.117980127876152
20
25.375612337695049
30
0
10
-81.000779063775667
20
25.587695811524487
30
0
10
-80.967967290185229
20
25.787855357449949
30
0
10
-80.928153391516162
20
25.998168880240993
30
0
10
-80.807153023093747
20
26.637343002661087
30
0
10
-80.825192547014112
20
27.3256315208593
30
0
10
-80.932511567314776
20
28.023947641244863
30
0
10
-80.935913091655252
20
28.046081082960796
30
0
10
-80.939314615995727
20
28.068214524676726
30
0
10
-80.942716140336188
20
28.090347966392663
30
0
0
ARC
5
122
100
AcDbEntity
8
PERIMETER
100
AcDbCircle
10
-87.054844029776248
20
14.913947939711287
30
0
40
14.52499999999999
210
0
220
-0
230
1
100
AcDbArc
50
65.1148605561674
51
69.885139443832841
0
SPLINE
5
123
100
AcDbEntity
8
PERIMETER
100
AcDbSpline
70
0
71
3
72
17
73
13
74
0
42
0.000000001
43
0.0000000001
44
0.0000000001
40
-1.0242265215322615
40
-1.0242265215322615
40
-1.0242265215322615
40
-1.0242265215322615
40
-1
40
-1
40
-1
40
-0.5
40
-0.5
40
-0.5
40
-0.14626674255309352
40
-0.14626674255309352
40
-0.14626674255309352
40
0
40
0
40
0
40
0
10
-82.059649297385832
20
28.552996828306767
30
0
10
-82.077705245041685
20
28.539751362505932
30
0
10
-82.095761192697523
20
28.526505896705096
30
0
10
-82.113817140353376
20
28.513260430904257
30
0
10
-82.49237414876103
20
28.235558922010739
30
0
10
-82.837068673335423
20
27.932540305110688
30
0
10
-83.135903768041743
20
27.603594950739794
30
0
10
-83.347319591020749
20
27.370877127293383
30
0
10
-83.537211608446029
20
27.128847025216245
30
0
10
-83.6900788331439
20
26.861257973889629
30
0
10
-83.753288583793505
20
26.750611383396816
30
0
10
-83.815689423551049
20
26.647018385387486
30
0
10
-83.855326915479154
20
26.509458502038896
30
0
0
LINE
5
124
100
AcDbEntity
8
PERIMETER
100
AcDbLine
10
-83.855326915479154
20
26.509458502038896
30
0
11
-83.97360655997575
21
26.098975060528282
31
0
0
ARC
5
125
100
AcDbEntity
8
PERIMETER
100
AcDbCircle
10
-84.622216755424802
20
26.285870256720028
30
0
40
0.67499999999999716
210
-1.1183381023052067e-32
220
-2.2817331035967045e-32
230
1
100
AcDbArc
50
257.92554022275516
51
343.92581306234877
0
ARC
5
126
100
AcDbEntity
8
PERIMETER
100
AcDbCircle
10
-87.054844029776248
20
14.913947939711287
30
0
40
10.954200000000004
210
3.1776004933831355e-34
220
1.485448524985226e-33
230
1
100
AcDbArc
50
77.925540222755188
51
79.574459777245011
0
ARC
5
127
100
AcDbEntity
8
PERIMETER
100
AcDbCircle
10
-84.950452313916173
20
26.351160368717732
30
0
40
0.67499999999999993
210
0
220
0
230
1
100
AcDbArc
50
173.57418693765044
51
259.57445977723933
0
LINE
5
128
100
AcDbEntity
8
PERIMETER
100
AcDbLine
10
-85.621211693240895
20
26.426704098092941
30
0
11
-85.573402623577721
21
26.851205008474111
31
0
0
SPLINE
5
129
100
AcDbEntity
8
PERIMETER
100
AcDbSpline
70
0
71
3
72
14
73
10
74
0
42
0.000000001
43
0.0000000001
44
0.0000000001
40
0
40
0
40
0
40
0
40
0.24757690587959122
40
0.24757690587959122
40
0.24757690587959122
40
1
40
1
40
1
40
1.0242265215321864
40
1.0242265215321864
40
1.0242265215321864
40
1.0242265215321864
10
-85.573402623577721
20
26.851205008474111
30
0
10
-85.546283790981064
20
27.09199549460525
30
0
10
-85.592567406987584
20
27.289475324458145
30
0
10
-85.636267661669962
20
27.499015802967964
30
0
10
-85.769079244903622
20
28.135840528697873
30
0
10
-86.049142204433565
20
28.764832776196833
30
0
10
-86.415526060566862
20
29.368923536002228
30
0
10
-86.427138760730259
20
29.388070462777716
30
0
10
-86.438751460893684
20
29.407217389553203
30
0
10
-86.450364161057081
20
29.426364316328684
30
0
0
ARC
5
12A
100
AcDbEntity
8
PERIMETER
100
AcDbCircle
10
-87.054844029776248
20
14.913947939711287
30
0
40
14.524999999999984
210
0
220
-0
230
1
100
AcDbArc
50
87.614860556167571
51
92.385139443833054
0
SPLINE
5
12B
100
AcDbEntity
8
PERIMETER
100
AcDbSpline
70
0
71
3
72
17
73
13
74
0
42
0.000000001
43
0.0000000001
44
0.0000000001
40
-1.0242265215322721
40
-1.0242265215322721
40
-1.0242265215322721
40
-1.0242265215322721
40
-1
40
-1
40
-1
40
-0.5
40
-0.5
40
-0.5
40
-0.14626674257713962
40
-0.14626674257713962
40
-0.14626674257713962
40
0
40
0
40
0
40
0
10
-87.659323898495558
20
29.426364316328687
30
0
10
-87.670936598658955
20
29.407217389553132
30
0
10
-87.682549298822352
20
29.388070462777577
30
0
10
-87.694161998985749
20
29.368923536002022
30
0
10
-87.937631304344677
20
28.967493300465978
30
0
10
-88.140127316183055
20
28.555631718559312
30
0
10
-88.290333006507097
20
28.137366598587846
30
0
10
-88.396598502750663
20
27.84145803188034
30
0
10
-88.479414940832001
20
27.545182845337859
30
0
10
-88.518243944302654
20
27.239463043467552
30
0
10
-88.534299522159685
20
27.113049598809607
30
0
10
-88.552307056780037
20
26.993462380676505
30
0
10
-88.536285435974804
20
26.85120500847443
30
0
0
LINE
5
12C
100
AcDbEntity
8
PERIMETER
100
AcDbLine
10
-88.53628543597479
20
26.851205008474427
30
0
11
-88.488476366311602
21
26.426704098092934
31
0
0
ARC
5
12D
100
AcDbEntity
8
PERIMETER
100
AcDbCircle
10
-89.159235745636323
20
26.351160368717732
30
0
40
0.67499999999999938
210
-0
220
0
230
1
100
AcDbArc
50
-79.574459777244343
51
6.4258130623490004
0
ARC
5
12E
100
AcDbEntity
8
PERIMETER
100
AcDbCircle
10
-87.054844029776248
20
14.913947939711287
30
0
40
10.9542
210
-3.0306153334490939e-33
220
-5.5761854920996918e-34
230
1
100
AcDbArc
50
100.4255402227553
51
102.07445977724518
0
ARC
5
12F
100
AcDbEntity
8
PERIMETER
100
AcDbCircle
10
-89.487471304127681
20
26.285870256720028
30
0
40
0.67500000000000171
210
-6.8256626689479215e-33
220
2.3688112310995964e-32
230
1
100
AcDbArc
50
196.07418693765089
51
282.07445977723756
0
LINE
5
130
100
AcDbEntity
8
PERIMETER
100
AcDbLine
10
-90.136081499576733
20
26.098975060528286
30
-3.0567247885415291e-48
11
-90.254361144073343
21
26.509458502038925
31
0
0
SPLINE
5
131
100
AcDbEntity
8
PERIMETER
100
AcDbSpline
70
0
71
3
72
14
73
10
74
0
42
0.000000001
43
0.0000000001
44
0.0000000001
40
0
40
0
40
0
40
0
40
0.24757690588263054
40
0.24757690588263054
40
0.24757690588263054
40
1
40
1
40
1
40
1.0242265215322004
40
1.0242265215322004
40
1.0242265215322004
40
1.0242265215322004
10
-90.254361144073343
20
26.509458502038925
30
0
10
-90.321453139405548
20
26.742297831738682
30
0
10
-90.439785884038457
20
26.907033431593387
30
0
10
-90.560347324441764
20
27.083900227465136
30
0
10
-90.926751499726649
20
27.621424764828628
30
0
10
-91.426200848056595
20
28.0953623737717
30
0
10
-91.99587091919922
20
28.513260430904324
30
0
10
-92.013926866855073
20
28.526505896705142
30
0
10
-92.031982814510926
20
28.53975136250596
30
0
10
-92.050038762166778
20
28.552996828306778
30
0
0
ARC
5
132
100
AcDbEntity
8
PERIMETER
100
AcDbCircle
10
-87.054844029776248
20
14.913947939711287
30
0
40
14.524999999999988
210
0
220
0
230
1
100
AcDbArc
50
110.11486055616741
51
114.88513944383271
0
SPLINE
5
133
100
AcDbEntity
8
PERIMETER
100
AcDbSpline
70
0
71
3
72
17
73
13
74
0
42
0.000000001
43
0.0000000001
44
0.0000000001
40
-1.0242265215321966
40
-1.0242265215321966
40
-1.0242265215321966
40
-1.0242265215321966
40
-1
40
-1
40
-1
40
-0.5
40
-0.5
40
-0.5
40
-0.14626674255061989
40
-0.14626674255061989
40
-0.14626674255061989
40
0
40
0
40
0
40
0
10
-93.166971919216309
20
28.090347966392642
30
0
10
-93.17037344355677
20
28.068214524676716
30
0
10
-93.173774967897245
20
28.046081082960793
30
0
10
-93.17717649223772
20
28.023947641244867
30
0
10
-93.248492099866212
20
27.559902793439353
30
0
10
-93.277961416792863
20
27.101900438850471
30
0
10
-93.256670248000674
20
26.657992626210589
30
0
10
-93.241607459017246
20
26.343942713066451
30
0
10
-93.204740265802371
20
26.038527653423671
30
0
10
-93.123619684240921
20
25.741220169449804
30
0
10
-93.090076773109644
20
25.618285171676799
30
0
10
-93.060949518681355
20
25.500909803363943
30
0
10
-92.991707931676345
20
25.375612337695053
30
0
0
LINE
5
134
100
AcDbEntity
8
PERIMETER
100
AcDbLine
10
-92.991707931676359
20
25.375612337695053
30
0
11
-92.785088645319405
21
25.001720373938426
31
0
0
ARC
5
135
100
AcDbEntity
8
PERIMETER
100
AcDbCircle
10
-93.375880173466527
20
24.675238566988043
30
0
40
0.67499999999999805
210
1.0346128388505508e-32
220
6.6997545701851784e-33
230
1
100
AcDbArc
50
-57.074459777243817
51
28.925813062349107
0
ARC
5
136
100
AcDbEntity
8
PERIMETER
100
AcDbCircle
10
-87.054844029776248
20
14.913947939711287
30
0
40
10.954199999999997
210
-2.1242171255999941e-48
220
3.2803325668558312e-48
230
1
100
AcDbArc
50
122.92554022275525
51
124.57445977724399
0
ARC
5
137
100
AcDbEntity
8
PERIMETER
100
AcDbCircle
10
-93.654144843640324
20
24.489308058690256
30
0
40
0.67500000000000226
210
-9.6364470548191891e-33
220
-7.6855690805445418e-33
230
1
100
AcDbArc
50
218.57418693765052
51
304.57445977725672
0
LINE
5
138
100
AcDbEntity
8
PERIMETER
100
AcDbLine
10
-94.181860832622647
20
24.068427036342595
30
-8.3200173597528567e-33
11
-94.448222187612046
21
24.402400626054099
31
0
0
SPLINE
5
139
100
AcDbEntity
8
PERIMETER
100
AcDbSpline
70
0
71
3
72
14
73
10
74
0
42
0.000000001
43
0.0000000001
44
0.0000000001
40
0
40
0
40
0
40
0
40
0.24757690585414344
40
0.24757690585414344
40
0.24757690585414344
40
1
40
1
40
1
40
1.0242265215322364
40
1.0242265215322364
40
1.0242265215322364
40
1.0242265215322364
10
-94.448222187612046
20
24.402400626054099
30
0
10
-94.59931086275482
20
24.59184112204575
30
0
10
-94.771677648312874
20
24.698752990144431
30
0
10
-94.950745888003794
20
24.816019736995763
30
0
10
-95.494960941127047
20
25.172410847878623
30
0
10
-96.137760042518579
20
25.419141113570412
30
0
10
-96.82398922443717
20
25.587225277097019
30
0
10
-96.845739565232435
20
25.592552779825439
30
0
10
-96.867489906027714
20
25.597880282553859
30
0
10
-96.889240246822993
20
25.603207785282276
30
0
0
ARC
5
13A
100
AcDbEntity
8
PERIMETER
100
AcDbCircle
10
-87.054844029776248
20
14.913947939711287
30
0
40
14.524999999999988
210
-1.5106137794179863e-48
220
-1.3898038453880767e-48
230
1
100
AcDbArc
50
132.61486055616726
51
137.38513944383232
0
SPLINE
5
13B
100
AcDbEntity
8
PERIMETER
100
AcDbSpline
70
0
71
3
72
17
73
13
74
0
42
0.000000001
43
0.0000000001
44
0.0000000001
40
-1.024226521532196
40
-1.024226521532196
40
-1.024226521532196
40
-1.024226521532196
40
-1
40
-1
40
-1
40
-0.5
40
-0.5
40
-0.5
40
-0.14626674255056094
40
-0.14626674255056094
40
-0.14626674255056094
40
0
40
0
40
0
40
0
10
-97.744103875347179
20
24.748344156758108
30
0
10
-97.738776372618787
20
24.726593815962833
30
0
10
-97.733448869890395
20
24.704843475167564
30
0
10
-97.728121367161989
20
24.683093134372307
30
0
10
-97.616426122269232
20
24.22708029580949
30
0
10
-97.468382307929062
20
23.792663875211069
30
0
10
-97.278835667464222
20
23.390694310344013
30
0
10
-97.144737766323871
20
23.1063143031922
30
0
10
-96.99379963777173
20
22.838256044709034
30
0
10
-96.805079344366405
20
22.594623247990189
30
0
10
-96.727044548405701
20
22.493882436081538
30
0
10
-96.655216865378932
20
22.396588253375633
30
0
10
-96.543296716119045
20
22.307326097547055
30
0
0
LINE
5
13C
100
AcDbEntity
8
PERIMETER
100
AcDbLine
10
-96.543296716119059
20
22.307326097547055
30
0
11
-96.209323126407554
21
22.040964742557676
31
0
0
ARC
5
13D
100
AcDbEntity
8
PERIMETER
100
AcDbCircle
10
-96.630204148755212
20
21.513248753575365
30
0
40
0.67499999999999893
210
1.3989382367904219e-32
220
2.0298116087292376e-32
230
1
100
AcDbArc
50
-34.574459777245622
51
51.425813062349135
0
ARC
5
13E
100
AcDbEntity
8
PERIMETER
100
AcDbCircle
10
-87.054844029776248
20
14.913947939711287
30
0
40
10.954200000000004
210
-8.8114700604855496e-49
220
6.0728307676120842e-49
230
1
100
AcDbArc
50
145.4255402227553
51
147.07445977724464
0
ARC
5
13F
100
AcDbEntity
8
PERIMETER
100
AcDbCircle
10
-96.816134657052999
20
21.23498408340156
30
0
40
0.67500000000000271
210
0
220
0
230
1
100
AcDbArc
50
241.07418693765118
51
327.07445977724558
0
LINE
5
140
100
AcDbEntity
8
PERIMETER
100
AcDbLine
10
-97.142616464003382
20
20.644192555254431
30
0
11
-97.516508427760272
21
20.850811841611527
31
0
0
SPLINE
5
141
100
AcDbEntity
8
PERIMETER
100
AcDbSpline
70
0
71
3
72
14
73
10
74
0
42
0.000000001
43
0.0000000001
44
0.0000000001
40
0
40
0
40
0
40
0
40
0.24757690586849299
40
0.24757690586849299
40
0.24757690586849299
40
1
40
1
40
1
40
1.0242265215322059
40
1.0242265215322059
40
1.0242265215322059
40
1.0242265215322059
10
-97.516508427760272
20
20.850811841611527
30
0
10
-97.728591901564585
20
20.968012905697478
30
0
10
-97.928751447483577
20
21.000824679293896
30
0
10
-98.139064970257479
20
21.040638577962184
30
0
10
-98.778239092690697
20
21.161638946394561
30
0
10
-99.46652761091444
20
21.143599422474416
30
0
10
-100.16484373130976
20
21.036280402172775
30
0
10
-100.18697717302571
20
21.032878877832317
30
0
10
-100.20911061474166
20
21.029477353491856
30
0
10
-100.23124405645761
20
21.026075829151395
30
0
0
ARC
5
142
100
AcDbEntity
8
PERIMETER
100
AcDbCircle
10
-87.054844029776248
20
14.913947939711287
30
0
40
14.525000000000027
210
0
220
0
230
1
100
AcDbArc
50
155.11486055616726
51
159.88513944383283
0
SPLINE
5
143
100
AcDbEntity
8
PERIMETER
100
AcDbSpline
70
0
71
3
72
17
73
13
74
0
42
0.000000001
43
0.0000000001
44
0.0000000001
40
-1.0242265215322266
40
-1.0242265215322266
40
-1.0242265215322266
40
-1.0242265215322266
40
-1
40
-1
40
-1
40
-0.5
40
-0.5
40
-0.5
40
-0.14626674255125138
40
-0.14626674255125138
40
-0.14626674255125138
40
0
40
0
40
0
40
0
10
-100.6938929183718
20
19.909142672101723
30
0
10
-100.68064745257091
20
19.891086724445856
30
0
10
-100.66740198677007
20
19.873030776789992
30
0
10
-100.6541565209692
20
19.854974829134132
30
0
10
-100.37645501207621
20
19.476417820727498
30
0
10
-100.07343639517586
20
19.131723296152327
30
0
10
-99.744491040804775
20
18.832888201445797
30
0
10
-99.511773217356719
20
18.621472378465192
30
0
10
-99.269743115281244
20
18.431580361040712
30
0
10
-99.002154063950371
20
18.27871313634121
30
0
10
-98.891507473457793
20
18.215503385692063
30
0
10
-98.787914475453078
20
18.153102545936516
30
0
10
-98.650354592103753
20
18.113465054008351
30
0
0
LINE
5
144
100
AcDbEntity
8
PERIMETER
100
AcDbLine
10
-98.650354592103753
20
18.113465054008351
30
0
11
-98.239871150593245
21
17.99518540951177
31
0
0
ARC
5
145
100
AcDbEntity
8
PERIMETER
100
AcDbCircle
10
-98.426766346784987
20
17.346575214062728
30
0
40
0.67499999999998661
210
6.0266297157012467e-33
220
-1.2891878268376702e-33
230
1
100
AcDbArc
50
-12.074459777244575
51
73.925813062348837
0
ARC
5
146
100
AcDbEntity
8
PERIMETER
100
AcDbCircle
10
-87.054844029776248
20
14.913947939711287
30
0
40
10.954200000000011
210
-3.7136213124630275e-34
220
7.9440012334578281e-35
230
1
100
AcDbArc
50
167.92554022275525
51
169.57445977724461
0
ARC
5
147
100
AcDbEntity
8
PERIMETER
100
AcDbCircle
10
-98.492056458782699
20
17.018339655571349
30
0
40
0.67500000000000104
210
0
220
0
230
1
100
AcDbArc
50
263.57418693765129
51
349.57445977724734
0
LINE
5
148
100
AcDbEntity
8
PERIMETER
100
AcDbLine
10
-98.567600188157897
20
16.347580276246628
30
0
11
-98.992101098539123
21
16.395389345909809
31
0
0
SPLINE
5
149
100
AcDbEntity
8
PERIMETER
100
AcDbSpline
70
0
71
3
72
14
73
10
74
0
42
0.000000001
43
0.0000000001
44
0.0000000001
40
0
40
0
40
0
40
0
40
0.24757690587974171
40
0.24757690587974171
40
0.24757690587974171
40
1
40
1
40
1
40
1.0242265215322233
40
1.0242265215322233
40
1.0242265215322233
40
1.0242265215322233
10
-98.992101098539138
20
16.395389345909805
30
0
10
-99.232891584668465
20
16.422508178506153
30
0
10
-99.430371414523634
20
16.37622456249985
30
0
10
-99.639911893033315
20
16.33252430781749
30
0
10
-100.2767366187623
20
16.199712724583964
30
0
10
-100.9057288662602
20
15.919649765054571
30
0
10
-101.50981962606716
20
15.553265908920702
30
0
10
-101.52896655284266
20
15.541653208757298
30
0
10
-101.54811347961817
20
15.530040508593892
30
0
10
-101.56726040639367
20
15.518427808430486
30
0
0
ARC
5
14A
100
AcDbEntity
8
PERIMETER
100
AcDbCircle
10
-87.054844029776248
20
14.913947939711287
30
0
40
14.524999999999988
210
0
220
0
230
1
100
AcDbArc
50
177.61486055616746
51
182.38513944383251
0
SPLINE
5
14B
100
AcDbEntity
8
PERIMETER
100
AcDbSpline
70
0
71
3
72
17
73
13
74
0
42
0.000000001
43
0.0000000001
44
0.0000000001
40
-1.0242265215322215
40
-1.0242265215322215
40
-1.0242265215322215
40
-1.0242265215322215
40
-1
40
-1
40
-1
40
-0.5
40
-0.5
40
-0.5
40
-0.14626674255819289
40
-0.14626674255819289
40
-0.14626674255819289
40
0
40
0
40
0
40
0
10
-101.56726040639367
20
14.309468070992084
30
0
10
-101.54811347961817
20
14.297855370828678
30
0
10
-101.52896655284266
20
14.286242670665272
30
0
10
-101.50981962606716
20
14.274629970501868
30
0
10
-101.10838939051986
20
14.031160665135321
30
0
10
-100.69652780862434
20
13.828664653304541
30
0
10
-100.27826268865283
20
13.678458962980422
30
0
10
-99.98235412192976
20
13.572193466731298
30
0
10
-99.686078935369807
20
13.48937702864519
30
0
10
-99.38035913348341
20
13.450548025178637
30
0
10
-99.253945688841938
20
13.434492447326257
30
0
10
-99.134358470727406
20
13.416484912708832
30
0
10
-98.99210109853918
20
13.432506533512761
30
0
0
LINE
5
14C
100
AcDbEntity
8
PERIMETER
100
AcDbLine
10
-98.99210109853918
20
13.432506533512758
30
0
11
-98.567600188157897
21
13.480315603175946
31
0
0
ARC
5
14D
100
AcDbEntity
8
PERIMETER
100
AcDbCircle
10
-98.492056458782699
20
12.809556223851221
30
0
40
0.67500000000000493
210
1.4303330602305956e-33
220
-2.4802541216802733e-32
230
1
100
AcDbArc
50
10.425540222755041
51
96.425813062348652
0
ARC
5
14E
100
AcDbEntity
8
PERIMETER
100
AcDbCircle
10
-87.054844029776248
20
14.913947939711287
30
0
40
10.954199999999997
210
4.64769551807751e-33
220
-2.4210562100804069e-32
230
1
100
AcDbArc
50
190.4255402227553
51
192.0744597772451
0
ARC
5
14F
100
AcDbEntity
8
PERIMETER
100
AcDbCircle
10
-98.426766346784987
20
12.481320665359853
30
0
40
0.67500000000000093
210
5.9220280777489753e-33
220
1.7064156672370221e-33
230
1
100
AcDbArc
50
-73.925813062348979
51
12.074459777238898
0
LINE
5
150
100
AcDbEntity
8
PERIMETER
100
AcDbLine
10
-98.239871150593245
20
11.832710469910806
30
7.6418119713538228e-49
11
-98.650354592103781
21
11.714430825414222
31
1.9259299443872359e-32
0
SPLINE
5
151
100
AcDbEntity
8
PERIMETER
100
AcDbSpline
70
0
71
3
72
14
73
10
74
0
42
0.000000001
43
0.0000000001
44
0.0000000001
40
0
40
0
40
0
40
0
40
0.2475769058905731
40
0.2475769058905731
40
0.2475769058905731
40
1
40
1
40
1
40
1.0242265215322064
40
1.0242265215322064
40
1.0242265215322064
40
1.0242265215322064
10
-98.650354592103781
20
11.714430825414224
30
0
10
-98.883193921811525
20
11.647338830079917
30
0
10
-99.047929521668863
20
11.529006085443061
30
0
10
-99.224796317547089
20
11.408444645034187
30
0
10
-99.762320854907372
20
11.042040469748036
30
0
10
-100.23625846383658
20
10.542591121431737
30
0
10
-100.65415652096932
20
9.9729210502882673
30
0
10
-100.66740198677013
20
9.954865102632418
30
0
10
-100.68064745257092
20
9.9368091549765722
30
0
10
-100.69389291837172
20
9.9187532073207247
30
0
0
ARC
5
152
100
AcDbEntity
8
PERIMETER
100
AcDbCircle
10
-87.054844029776248
20
14.913947939711287
30
0
40
14.524999999999997
210
-1.1765407681231029e-49
220
3.212466763668503e-49
230
1
100
AcDbArc
50
200.1148605561676
51
204.88513944383286
0
SPLINE
5
153
100
AcDbEntity
8
PERIMETER
100
AcDbSpline
70
0
71
3
72
17
73
13
74
0
42
0.000000001
43
0.0000000001
44
0.0000000001
40
-1.0242265215322002
40
-1.0242265215322002
40
-1.0242265215322002
40
-1.0242265215322002
40
-1
40
-1
40
-1
40
-0.5
40
-0.5
40
-0.5
40
-0.14626674255763822
40
-0.14626674255763822
40
-0.14626674255763822
40
0
40
0
40
0
40
0
10
-100.23124405645761
20
8.8018200502711768
30
0
10
-100.20911061474166
20
8.7984185259307193
30
0
10
-100.18697717302571
20
8.79501700159026
30
0
10
-100.16484373130976
20
8.7916154772498007
30
0
10
-99.700798883509094
20
8.7202998696224121
30
0
10
-99.242796528914113
20
8.6908305526947931
30
0
10
-98.79888871627557
20
8.7121217214868647
30
0
10
-98.484838803138587
20
8.7271845104699857
30
0
10
-98.179423743499413
20
8.7640517036846717
30
0
10
-97.882116259532509
20
8.8451722852417696
30
0
10
-97.759181261754051
20
8.878715196373534
30
0
10
-97.64180589343114
20
8.9078424508052656
30
0
10
-97.516508427760229
20
8.9770840378110659
30
0
0
LINE
5
154
100
AcDbEntity
8
PERIMETER
100
AcDbLine
10
-97.516508427760229
20
8.9770840378110659
30
0
11
-97.142616464003382
21
9.1837033241681318
31
0
0
ARC
5
155
100
AcDbEntity
8
PERIMETER
100
AcDbCircle
10
-96.816134657052999
20
8.59291179602101
30
0
40
0.67499999999999316
210
-1.0346128388505533e-32
220
-6.6997545701853043e-33
230
1
100
AcDbArc
50
32.925540222756361
51
118.92581306234912
0
ARC
5
156
100
AcDbEntity
8
PERIMETER
100
AcDbCircle
10
-87.054844029776248
20
14.913947939711287
30
0
40
10.954200000000004
210
6.3753050539895156e-34
220
4.1284021972165757e-34
230
1
100
AcDbArc
50
212.92554022275525
51
214.57445977724413
0
ARC
5
157
100
AcDbEntity
8
PERIMETER
100
AcDbCircle
10
-96.630204148755212
20
8.3146471258472037
30
0
40
0.67499999999999882
210
-9.6364470548192643e-33
220
-7.6855690805445117e-33
230
1
100
AcDbArc
50
-51.42581306234942
51
34.574459777254702
0
LINE
5
158
100
AcDbEntity
8
PERIMETER
100
AcDbLine
10
-96.209323126407554
20
7.7869311368648866
30
-3.1087001876122369e-47
11
-96.543296716119045
21
7.5205697818755119
31
0
0
SPLINE
5
159
100
AcDbEntity
8
PERIMETER
100
AcDbSpline
70
0
71
3
72
14
73
10
74
0
42
0.000000001
43
0.0000000001
44
0.0000000001
40
0
40
0
40
0
40
0
40
0.24757690588529535
40
0.24757690588529535
40
0.24757690588529535
40
1
40
1
40
1
40
1.0242265215322544
40
1.0242265215322544
40
1.0242265215322544
40
1.0242265215322544
10
-96.543296716119045
20
7.5205697818755119
30
0
10
-96.732737212138744
20
7.3694811067104489
30
0
10
-96.839649080240775
20
7.197114321133907
30
0
10
-96.956915827104979
20
7.0180460814161432
30
0
10
-97.31330693796744
20
6.473831028302353
30
0
10
-97.560037203644967
20
5.8310319269255606
30
0
10
-97.728121367161947
20
5.1448027450505354
30
0
10
-97.733448869890395
20
5.1230524042552252
30
0
10
-97.738776372618872
20
5.1013020634599151
30
0
10
-97.744103875347321
20
5.0795517226646067
30
0
0
ARC
5
15A
100
AcDbEntity
8
PERIMETER
100
AcDbCircle
10
-87.054844029776248
20
14.913947939711287
30
0
40
14.524999999999997
210
8.3388230723284005e-48
220
-9.0636826765079681e-48
230
1
100
AcDbArc
50
222.61486055616686
51
227.38513944383274
0
SPLINE
5
15B
100
AcDbEntity
8
PERIMETER
100
AcDbSpline
70
0
71
3
72
17
73
13
74
0
42
0.000000001
43
0.0000000001
44
0.0000000001
40
-1.0242265215322555
40
-1.0242265215322555
40
-1.0242265215322555
40
-1.0242265215322555
40
-1
40
-1
40
-1
40
-0.5
40
-0.5
40
-0.5
40
-0.14626674257256944
40
-0.14626674257256944
40
-0.14626674257256944
40
0
40
0
40
0
40
0
10
-96.889240246823007
20
4.224688094140264
30
0
10
-96.867489906027714
20
4.2300155968686957
30
0
10
-96.845739565232407
20
4.2353430995971255
30
0
10
-96.823989224437128
20
4.2406706023255545
30
0
10
-96.367976385879814
20
4.3523658472174906
30
0
10
-95.933559965275634
20
4.5004096615586278
30
0
10
-95.531590400408973
20
4.6899563020233135
30
0
10
-95.247210393275139
20
4.8240542031552005
30
0
10
-94.979152134809453
20
4.974992331697341
30
0
10
-94.73551933810063
20
5.1637126250858998
30
0
10
-94.634778526174699
20
5.2417474210562709
30
0
10
-94.537484343452419
20
5.3135751040938324
30
0
10
-94.448222187612046
20
5.4254952533684744
30
0
0
LINE
5
15C
100
AcDbEntity
8
PERIMETER
100
AcDbLine
10
-94.448222187612046
20
5.4254952533684744
30
0
11
-94.181860832622633
21
5.7594688430799774
31
0
0
ARC
5
15D
100
AcDbEntity
8
PERIMETER
100
AcDbCircle
10
-93.654144843640324
20
5.3385878207323154
30
0
40
0.6749999999999966
210
1.0149058043646234e-32
220
-6.9946911839520453e-33
230
1
100
AcDbArc
50
55.42554022275629
51
141.42581306234865
0
ARC
5
15E
100
AcDbEntity
8
PERIMETER
100
AcDbCircle
10
-87.054844029776248
20
14.913947939711287
30
0
40
10.954200000000007
210
3.3661821451876483e-48
220
4.8842153396816983e-48
230
1
100
AcDbArc
50
235.42554022275522
51
237.0744597772445
0
ARC
5
15F
100
AcDbEntity
8
PERIMETER
100
AcDbCircle
10
-93.375880173466527
20
5.1526573124345196
30
0
40
0.67500000000000204
210
-1.1353038853494549e-33
220
-2.7538273452573137e-32
230
1
100
AcDbArc
50
-28.925813062349039
51
57.074459777247327
0
LINE
5
160
100
AcDbEntity
8
PERIMETER
100
AcDbLine
10
-92.785088645319405
20
4.8261755054841373
30
-8.3200173597528594e-33
11
-92.991707931676345
21
4.4522835417275122
31
0
0
SPLINE
5
161
100
AcDbEntity
8
PERIMETER
100
AcDbSpline
70
0
71
3
72
14
73
10
74
0
42
0.000000001
43
0.0000000001
44
0.0000000001
40
0
40
0
40
0
40
0
40
0.24757690587945946
40
0.24757690587945946
40
0.24757690587945946
40
1
40
1
40
1
40
1.024226521532198
40
1.024226521532198
40
1.024226521532198
40
1.024226521532198
10
-92.991707931676345
20
4.4522835417275122
30
0
10
-93.108908995773007
20
4.2402000679049765
30
0
10
-93.14172076936309
20
4.040040521988387
30
0
10
-93.181534668032413
20
3.8297269992021796
30
0
10
-93.302535036460839
20
3.1905528767691491
30
0
10
-93.284495512539465
20
2.5022643585705682
30
0
10
-93.17717649223772
20
1.8039482381777028
30
0
10
-93.173774967897245
20
1.7818147964617703
30
0
10
-93.17037344355677
20
1.7596813547458379
30
0
10
-93.166971919216309
20
1.7375479130299032
30
0
0
ARC
5
162
100
AcDbEntity
8
PERIMETER
100
AcDbCircle
10
-87.054844029776248
20
14.913947939711287
30
0
40
14.525000000000004
210
0
220
0
230
1
100
AcDbArc
50
245.11486055616743
51
249.88513944383277
0
SPLINE
5
163
100
AcDbEntity
8
PERIMETER
100
AcDbSpline
70
0
71
3
72
17
73
13
74
0
42
0.000000001
43
0.0000000001
44
0.0000000001
40
-1.0242265215321837
40
-1.0242265215321837
40
-1.0242265215321837
40
-1.0242265215321837
40
-1
40
-1
40
-1
40
-0.5
40
-0.5
40
-0.5
40
-0.14626674254310351
40
-0.14626674254310351
40
-0.14626674254310351
40
0
40
0
40
0
40
0
10
-92.050038762166736
20
1.2748990511158087
30
0
10
-92.031982814510911
20
1.2881445169166217
30
0
10
-92.013926866855059
20
1.3013899827174324
30
0
10
-91.99587091919922
20
1.3146354485182432
30
0
10
-91.617313910783849
20
1.5923369574169188
30
0
10
-91.272619386217315
20
1.895355574311669
30
0
10
-90.973784291510768
20
2.2243009286827577
30
0
10
-90.762368468525224
20
2.4570187521362072
30
0
10
-90.572476451095355
20
2.6990488542191935
30
0
10
-90.419609226395622
20
2.9666379055556078
30
0
10
-90.356399475751346
20
3.0772844960417913
30
0
10
-90.293998635999344
20
3.180877494042317
30
0
10
-90.254361144073329
20
3.3184373773836642
30
0
0
LINE
5
164
100
AcDbEntity
8
PERIMETER
100
AcDbLine
10
-90.254361144073329
20
3.3184373773836646
30
0
11
-90.136081499576733
21
3.7289208188942844
31
0
0
ARC
5
165
100
AcDbEntity
8
PERIMETER
100
AcDbCircle
10
-89.487471304127681
20
3.5420256227025391
30
0
40
0.67499999999999716
210
0
220
-0
230
1
100
AcDbArc
50
77.925540222755217
51
163.92581306234882
0
ARC
5
166
100
AcDbEntity
8
PERIMETER
100
AcDbCircle
10
-87.054844029776248
20
14.913947939711287
30
0
40
10.954200000000005
210
0
220
0
230
1
100
AcDbArc
50
257.92554022275527
51
259.57445977724473
0
ARC
5
167
100
AcDbEntity
8
PERIMETER
100
AcDbCircle
10
-89.159235745636323
20
3.476735510704839
30
0
40
0.67499999999999938
210
-0
220
0
230
1
100
AcDbArc
50
-6.4258130623490146
51
79.574459777244286
0
LINE
5
168
100
AcDbEntity
8
PERIMETER
100
AcDbLine
10
-88.488476366311602
20
3.4011917813296364
30
0
11
-88.536285435974776
21
2.9766908709484561
31
0
0
SPLINE
5
169
100
AcDbEntity
8
PERIMETER
100
AcDbSpline
70
0
71
3
72
14
73
10
74
0
42
0.000000001
43
0.0000000001
44
0.0000000001
40
0
40
0
40
0
40
0
40
0.2475769058807247
40
0.2475769058807247
40
0.2475769058807247
40
1
40
1
40
1
40
1.0242265215321924
40
1.0242265215321924
40
1.0242265215321924
40
1.0242265215321924
10
-88.536285435974776
20
2.9766908709484561
30
0
10
-88.56340426857156
20
2.7359003848162109
30
0
10
-88.517120652564671
20
2.5384205549626229
30
0
10
-88.473420397881938
20
2.3288800764517212
30
0
10
-88.34060881464795
20
1.6920553507224023
30
0
10
-88.060545855123067
20
1.0630631032325613
30
0
10
-87.694161998985635
20
0.45897234342033749
30
0
10
-87.682549298822238
20
0.43982541664484459
30
0
10
-87.670936598658812
20
0.42067848986935391
30
0
10
-87.659323898495401
20
0.40153156309385213
30
0
0
ARC
5
16A
100
AcDbEntity
8
PERIMETER
100
AcDbCircle
10
-87.054844029776248
20
14.913947939711287
30
0
40
14.525000000000022
210
0
220
0
230
1
100
AcDbArc
50
267.61486055616763
51
272.38513944383311
0
SPLINE
5
16B
100
AcDbEntity
8
PERIMETER
100
AcDbSpline
70
0
71
3
72
17
73
13
74
0
42
0.000000001
43
0.0000000001
44
0.0000000001
40
-1.0242265215322792
40
-1.0242265215322792
40
-1.0242265215322792
40
-1.0242265215322792
40
-1
40
-1
40
-1
40
-0.5
40
-0.5
40
-0.5
40
-0.1462667425486508
40
-0.1462667425486508
40
-0.1462667425486508
40
0
40
0
40
0
40
0
10
-86.450364161056939
20
0.40153156309386767
30
0
10
-86.438751460893542
20
0.42067848986942052
30
0
10
-86.427138760730145
20
0.43982541664498004
30
0
10
-86.415526060566748
20
0.45897234342054177
30
0
10
-86.17205675520762
20
0.86040257895695038
30
0
10
-85.969560743369442
20
1.2722641608632512
30
0
10
-85.819355053045399
20
1.6905292808347216
30
0
10
-85.713089556793363
20
1.9864378475658662
30
0
10
-85.630273118704878
20
2.2827130341347237
30
0
10
-85.591444115240449
20
2.5884328360288675
30
0
10
-85.575388537390438
20
2.7148462806618632
30
0
10
-85.557381002774534
20
2.8344334987676092
30
0
10
-85.573402623577721
20
2.9766908709484472
30
0
0
LINE
5
16C
100
AcDbEntity
8
PERIMETER
100
AcDbLine
10
-85.573402623577749
20
2.9766908709484468
30
0
11
-85.621211693240923
21
3.401191781329632
31
0
0
ARC
5
16D
100
AcDbEntity
8
PERIMETER
100
AcDbCircle
10
-84.950452313916173
20
3.4767355107048346
30
0
40
0.67499999999999938
210
-3.0306153334491017e-33
220
-5.5761854920992676e-34
230
1
100
AcDbArc
50
100.42554022275567
51
186.42581306234877
0
ARC
5
16E
100
AcDbEntity
8
PERIMETER
100
AcDbCircle
10
-87.054844029776248
20
14.913947939711287
30
0
40
10.954200000000007
210
-3.683024763058392e-50
220
2.0016965605271747e-49
230
1
100
AcDbArc
50
280.42554022275533
51
282.07445977724473
0
ARC
5
16F
100
AcDbEntity
8
PERIMETER
100
AcDbCircle
10
-84.622216755424816
20
3.5420256227025391
30
0
40
0.67500000000000115
210
0
220
-0
230
1
100
AcDbArc
50
16.074186937650691
51
102.0744597772448
0
LINE
5
170
100
AcDbEntity
8
PERIMETER
100
AcDbLine
10
-83.973606559975764
20
3.7289208188942782
30
0
11
-83.855326915479168
21
3.3184373773836642
31
0
0
SPLINE
5
171
100
AcDbEntity
8
PERIMETER
100
AcDbSpline
70
0
71
3
72
14
73
10
74
0
42
0.000000001
43
0.0000000001
44
0.0000000001
40
0
40
0
40
0
40
0
40
0.24757690589259848
40
0.24757690589259848
40
0.24757690589259848
40
1
40
1
40
1
40
1.0242265215322008
40
1.0242265215322008
40
1.0242265215322008
40
1.0242265215322008
10
-83.855326915479168
20
3.3184373773836642
30
0
10
-83.78823492014412
20
3.0855980476739351
30
0
10
-83.669902175505939
20
2.9208624478150167
30
0
10
-83.549340735096166
20
2.7439956519360589
30
0
10
-83.182936559811253
20
2.2064711145794194
30
0
10
-82.683487211489137
20
1.7325335056459157
30
0
10
-82.113817140353277
20
1.314635448518241
30
0
10
-82.095761192697424
20
1.3013899827174191
30
0
10
-82.077705245041571
20
1.2881445169165995
30
0
10
-82.059649297385704
20
1.274899051115771
30
0
0
ARC
5
172
100
AcDbEntity
8
PERIMETER
100
AcDbCircle
10
-87.054844029776248
20
14.913947939711287
30
0
40
14.525000000000023
210
-5.787065647919039e-33
220
-2.1194674259621418e-33
230
1
100
AcDbArc
50
290.1148605561674
51
294.88513944383237
0
SPLINE
5
173
100
AcDbEntity
8
PERIMETER
100
AcDbSpline
70
0
71
3
72
17
73
13
74
0
42
0.000000001
43
0.0000000001
44
0.0000000001
40
-1.0242265215322182
40
-1.0242265215322182
40
-1.0242265215322182
40
-1.0242265215322182
40
-1
40
-1
40
-1
40
-0.5
40
-0.5
40
-0.5
40
-0.14626674254978461
40
-0.14626674254978461
40
-0.14626674254978461
40
0
40
0
40
0
40
0
10
-80.942716140336188
20
1.737547913029861
30
0
10
-80.939314615995727
20
1.7596813547458068
30
0
10
-80.935913091655252
20
1.7818147964617526
30
0
10
-80.932511567314776
20
1.8039482381776983
30
0
10
-80.861195959686285
20
2.2679930859832123
30
0
10
-80.831726642759634
20
2.7259954405721363
30
0
10
-80.853017811551823
20
3.1699032532119755
30
0
10
-80.868080600535279
20
3.4839531663568266
30
0
10
-80.904947793751134
20
3.7893682260031438
30
0
10
-80.986068375312129
20
4.086675709974811
30
0
10
-81.019611286442967
20
4.2096107077459157
30
0
10
-81.048738540871526
20
4.3269860760593346
30
0
10
-81.117980127876152
20
4.4522835417275122
30
0
0
LINE
5
174
100
AcDbEntity
8
PERIMETER
100
AcDbLine
10
-81.117980127876137
20
4.4522835417275122
30
0
11
-81.324599414233091
21
4.8261755054841391
31
0
0
ARC
5
175
100
AcDbEntity
8
PERIMETER
100
AcDbCircle
10
-80.73380788608597
20
5.1526573124345187
30
0
40
0.67499999999999805
210
0
220
0
230
1
100
AcDbArc
50
122.9255402227563
51
208.92581306234885
0
ARC
5
176
100
AcDbEntity
8
PERIMETER
100
AcDbCircle
10
-87.054844029776248
20
14.913947939711287
30
0
40
10.954200000000007
210
1.0346128388505508e-32
220
6.6997545701851798e-33
230
1
100
AcDbArc
50
302.92554022275522
51
304.57445977724507
0
ARC
5
177
100
AcDbEntity
8
PERIMETER
100
AcDbCircle
10
-80.455543215912172
20
5.3385878207323154
30
0
40
0.67499999999999882
210
-9.6364470548192739e-33
220
-7.6855690805445364e-33
230
1
100
AcDbArc
50
38.574186937650943
51
124.57445977723798
0
LINE
5
178
100
AcDbEntity
8
PERIMETER
100
AcDbLine
10
-79.92782722692985
20
5.7594688430799827
30
8.3200173597528581e-33
11
-79.661465871940408
21
5.4254952533684069
31
0
0
SPLINE
5
179
100
AcDbEntity
8
PERIMETER
100
AcDbSpline
70
0
71
3
72
14
73
10
74
0
42
0.000000001
43
0.0000000001
44
0.0000000001
40
0
40
0
40
0
40
0
40
0.24757690587355871
40
0.24757690587355871
40
0.24757690587355871
40
1
40
1
40
1
40
1.0242265215322193
40
1.0242265215322193
40
1.0242265215322193
40
1.0242265215322193
10
-79.661465871940408
20
5.4254952533684069
30
0
10
-79.51037719678537
20
5.2360547573616065
30
0
10
-79.338010411214654
20
5.1291428892589135
30
0
10
-79.158942171506595
20
5.0118761423992311
30
0
10
-78.614727118388004
20
4.6554850315281424
30
0
10
-77.971928017015742
20
4.4087547658477053
30
0
10
-77.285698835115326
20
4.2406706023255483
30
0
10
-77.263948494320047
20
4.2353430995971273
30
0
10
-77.242198153524754
20
4.2300155968687045
30
0
10
-77.220447812729475
20
4.22468809414028
30
0
0
ARC
5
17A
100
AcDbEntity
8
PERIMETER
100
AcDbCircle
10
-87.054844029776248
20
14.913947939711287
30
0
40
14.525000000000027
210
-9.070932872116761e-33
220
-8.3454934402771168e-33
230
1
100
AcDbArc
50
312.61486055616734
51
317.38513944383294
0
SPLINE
5
17B
100
AcDbEntity
8
PERIMETER
100
AcDbSpline
70
0
71
3
72
17
73
13
74
0
42
0.000000001
43
0.0000000001
44
0.0000000001
40
-1.0242265215322894
40
-1.0242265215322894
40
-1.0242265215322894
40
-1.0242265215322894
40
-1
40
-1
40
-1
40
-0.5
40
-0.5
40
-0.5
40
-0.14626674254184469
40
-0.14626674254184469
40
-0.14626674254184469
40
0
40
0
40
0
40
0
10
-76.365584184205147
20
5.0795517226645241
30
0
10
-76.37091168693361
20
5.1013020634598636
30
0
10
-76.376239189662073
20
5.1230524042552013
30
0
10
-76.38156669239055
20
5.1448027450505416
30
0
10
-76.493261937281162
20
5.6008155836000668
30
0
10
-76.64130575162352
20
6.0352320042116663
30
0
10
-76.830852392088275
20
6.4372015690785549
30
0
10
-76.964950293231283
20
6.721581576235983
30
0
10
-77.115888421789279
20
6.9896398347289619
30
0
10
-77.304608715200004
20
7.233272631450359
30
0
10
-77.382643511156374
20
7.33401344335158
30
0
10
-77.454471194181863
20
7.4313076260534761
30
0
10
-77.566391343433423
20
7.5205697818754782
30
0
0
LINE
5
17C
100
AcDbEntity
8
PERIMETER
100
AcDbLine
10
-77.566391343433423
20
7.5205697818754782
30
0
11
-77.900364933144942
21
7.7869311368648884
31
0
0
ARC
5
17D
100
AcDbEntity
8
PERIMETER
100
AcDbCircle
10
-77.479483910797285
20
8.3146471258472054
30
0
40
0.67499999999999694
210
-1.014905804364626e-32
220
6.9946911839520425e-33
230
1
100
AcDbArc
50
145.42554022275473
51
231.42581306234936
0
ARC
5
17E
100
AcDbEntity
8
PERIMETER
100
AcDbCircle
10
-87.054844029776248
20
14.913947939711287
30
0
40
10.954200000000007
210
6.2538699124182199e-34
220
-4.310142729882275e-34
230
1
100
AcDbArc
50
325.42554022275522
51
327.07445977724461
0
ARC
5
17F
100
AcDbEntity
8
PERIMETER
100
AcDbCircle
10
-77.293553402499484
20
8.5929117960210082
30
0
40
0.67500000000000071
210
0
220
-0
230
1
100
AcDbArc
50
61.074186937651191
51
147.07445977724583
0
LINE
5
180
100
AcDbEntity
8
PERIMETER
100
AcDbLine
10
-76.9670715955491
20
9.1837033241681372
30
0
11
-76.593179631792296
21
8.9770840378110837
31
0
0
ENDSEC
0
SECTION
2
OBJECTS
0
DICTIONARY
5
C
100
AcDbDictionary
3
ACAD_GROUP
350
D
3
ACAD_MLINESTYLE
350
17
0
DICTIONARY
5
D
100
AcDbDictionary
0
DICTIONARY
5
1A
330
C
100
AcDbDictionary
0
DICTIONARY
5
17
100
AcDbDictionary
0
ENDSEC
0
EOF
