0
SECTION
2
HEADER
9
$INSUNITS
70
4
9
$ACADVER
1
AC1014
9
$HANDSEED
5
FFFF
0
ENDSEC
0
SECTION
2
TABLES
0
TABLE
2
VPORT
5
8
100
AcDbSymbolTable
0
ENDTAB
0
TABLE
2
LTYPE
5
5
100
AcDbSymbolTable
70
2
0
LTYPE
5
14
100
AcDbSymbolTableRecord
100
AcDbLinetypeTableRecord
2
BYBLOCK
70
0
0
LTYPE
5
15
100
AcDbSymbolTableRecord
100
AcDbLinetypeTableRecord
2
BYLAYER
70
0
0
ENDTAB
0
TABLE
2
LAYER
5
2
100
AcDbSymbolTable
70
3
0
LAYER
5
50
100
AcDbSymbolTableRecord
100
AcDbLayerTableRecord
2
0
70
0
6
CONTINUOUS
0
LAYER
5
51
100
AcDbSymbolTableRecord
100
AcDbLayerTableRecord
2
CUTOUTS
70
0
62
1
6
CONTINUOUS
0
LAYER
5
52
100
AcDbSymbolTableRecord
100
AcDbLayerTableRecord
2
PERIMETER
70
0
62
5
6
CONTINUOUS
0
ENDTAB
0
TABLE
2
STYLE
5
3
100
AcDbSymbolTable
70
1
0
STYLE
5
11
100
AcDbSymbolTableRecord
100
AcDbTextStyleTableRecord
2
STANDARD
70
0
0
ENDTAB
0
TABLE
2
VIEW
5
6
100
AcDbSymbolTable
0
ENDTAB
0
TABLE
2
UCS
5
7
100
AcDbSymbolTable
0
ENDTAB
0
TABLE
2
APPID
5
9
100
AcDbSymbolTable
70
1
0
APPID
5
12
100
AcDbSymbolTableRecord
100
AcDbRegAppTableRecord
2
ACAD
70
0
0
ENDTAB
0
TABLE
2
DIMSTYLE
5
A
100
AcDbSymbolTable
0
ENDTAB
0
TABLE
2
BLOCK_RECORD
5
1
100
AcDbSymbolTable
70
2
0
BLOCK_RECORD
5
1F
100
AcDbSymbolTableRecord
100
AcDbBlockTableRecord
2
*MODEL_SPACE
0
BLOCK_RECORD
5
1B
100
AcDbSymbolTableRecord
100
AcDbBlockTableRecord
2
*PAPER_SPACE
0
ENDTAB
0
ENDSEC
0
SECTION
2
BLOCKS
0
BLOCK
5
20
100
AcDbEntity
100
AcDbBlockBegin
2
*MODEL_SPACE
0
ENDBLK
5
21
100
AcDbEntity
100
AcDbBlockEnd
0
BLOCK
5
1C
100
AcDbEntity
100
AcDbBlockBegin
2
*PAPER_SPACE
0
ENDBLK
5
1D
100
AcDbEntity
100
AcDbBlockEnd
0
ENDSEC
0
SECTION
2
ENTITIES
0
CIRCLE
5
100
100
AcDbEntity
8
CUTOUTS
100
AcDbCircle
10
29.523704794816954
20
-0.1450559194598583
30
0
40
0.74999999999999734
210
0
220
0
230
1
0
LWPOLYLINE
5
101
100
AcDbEntity
8
CUTOUTS
100
AcDbPolyline
90
4
70
1
43
0.0
10
85.667496417362528
20
44.076838839990913
10
88.417496417362557
20
44.076838839990913
10
88.417496417362557
20
40.826838839990899
10
85.667496417362528
20
40.826838839990899
0
LWPOLYLINE
5
102
100
AcDbEntity
8
CUTOUTS
100
AcDbPolyline
90
4
70
1
43
0.0
10
85.667496417362528
20
-40.826838839990899
10
88.417496417362557
20
-40.826838839990899
10
88.417496417362557
20
-44.076838839990913
10
85.667496417362528
20
-44.076838839990913
0
LWPOLYLINE
5
103
100
AcDbEntity
8
CUTOUTS
100
AcDbPolyline
90
4
70
1
43
0.0
10
101.87500144541264
20
-11.87500014901161
10
72.125001147389412
20
-11.87500014901161
10
72.125001147389412
20
-2.125000059604647
10
101.87500144541264
20
-2.1250000596046466
0
LWPOLYLINE
5
104
100
AcDbEntity
8
CUTOUTS
100
AcDbPolyline
90
4
70
1
43
0.0
10
94.875001415610313
20
27.874999895691872
10
94.875001415610313
20
2.1249998956918725
10
79.125001415610313
20
2.1249998956918708
10
79.125001415610313
20
27.874999895691872
0
LWPOLYLINE
5
105
100
AcDbEntity
8
CUTOUTS
100
AcDbPolyline
90
4
70
1
43
0.0
10
75.963370246568445
20
13.281838839990897
10
73.213370246568445
20
13.281838839990897
10
73.213370246568445
20
17.031838839990893
10
75.963370246568445
20
17.031838839990893
0
LWPOLYLINE
5
106
100
AcDbEntity
8
CUTOUTS
100
AcDbPolyline
90
4
70
1
43
0.0
10
100.96337024656846
20
13.281838839990886
10
98.213370246568431
20
13.281838839990886
10
98.213370246568431
20
17.031838839990904
10
100.96337024656846
20
17.031838839990904
0
LWPOLYLINE
5
107
100
AcDbEntity
8
PERIMETER
100
AcDbPolyline
90
13
70
1
43
0.0
10
93.947221206002283
20
-54.327014332566883
10
122.09426207859084
20
-54.327014332566883
10
122.09426207859084
20
54.327014332566883
10
93.947221206002268
20
54.327014332566883
10
91.585607787200331
20
53.467457343279335
10
91.585607787200331
20
53.326838839990913
10
91.199261624657879
20
53.326838839990913
10
-0.12499999999999289
20
20.087525942276212
10
-0.12500000000000178
20
5.974969084099353
10
27.301166467240385
20
5.974969084099353
10
27.301166467240385
20
-6.2749690840993511
10
-0.12500000000000178
20
-6.2749690840993511
10
-0.12500000000000236
20
-20.087525942276212
0
ENDSEC
0
SECTION
2
OBJECTS
0
DICTIONARY
5
C
100
AcDbDictionary
3
ACAD_GROUP
350
D
3
ACAD_MLINESTYLE
350
17
0
DICTIONARY
5
D
100
AcDbDictionary
0
DICTIONARY
5
1A
330
C
100
AcDbDictionary
0
DICTIONARY
5
17
100
AcDbDictionary
0
ENDSEC
0
EOF
